<?xml version="1.0" encoding="UTF-8" standalone="no"?><!DOCTYPE svg PUBLIC "-//W3C//DTD SVG 1.1//EN" "http://www.w3.org/Graphics/SVG/1.1/DTD/svg11.dtd"><svg width="100%" height="100%" viewBox="0 0 886 914" version="1.1" xmlns="http://www.w3.org/2000/svg" xmlns:xlink="http://www.w3.org/1999/xlink" xml:space="preserve" xmlns:serif="http://www.serif.com/" style="fill-rule:evenodd;clip-rule:evenodd;stroke-linecap:round;stroke-linejoin:round;stroke-miterlimit:1.5;"><path d="M885.15,891.352c-0,5.901 -2.345,11.56 -6.517,15.733c-4.173,4.173 -9.832,6.517 -15.733,6.517c-122.911,0 -717.739,0 -840.65,0c-5.901,0 -11.56,-2.344 -15.733,-6.517c-4.173,-4.173 -6.517,-9.832 -6.517,-15.733c-0,-0.001 -0,-0.002 -0,-0.003c0,-5.901 2.344,-11.56 6.517,-15.733c4.173,-4.172 9.832,-6.516 15.733,-6.516c122.911,-0 717.739,-0 840.65,-0c5.901,-0 11.56,2.344 15.733,6.516c4.172,4.173 6.517,9.832 6.517,15.733c-0,0.001 -0,0.002 -0,0.003Z" style="fill:#c4dbf7;fill-rule:nonzero;"/><g><rect x="557.475" y="660.266" width="203.132" height="211.579" style="fill:#c3dafc;fill-rule:nonzero;"/><rect x="659.041" y="660.266" width="203.132" height="211.579" style="fill:#d4e4f8;fill-rule:nonzero;"/><path d="M557.595,818.186l32.187,-0l-2.835,-11.438l2.835,-8.174l-32.187,-0l0,19.612Z" style="fill:#9dc3f3;fill-rule:nonzero;"/><path d="M659.041,725.744l32.186,0l-2.835,-11.442l2.835,-8.174l-32.186,-0l-0,19.616Z" style="fill:#e3f0ff;fill-rule:nonzero;"/><path d="M659.041,706.128l-32.187,-0l2.835,11.442l-2.835,8.174l32.187,0l-0,-19.616Z" style="fill:#9dc3f3;fill-rule:nonzero;"/><path d="M862.173,820.457l-32.187,-0l2.835,11.445l-2.835,8.184l32.187,-0l-0,-19.629Z" style="fill:#e3f0ff;fill-rule:nonzero;"/><rect x="790.417" y="674.612" width="58.45" height="28.727" style="fill:#fff;fill-rule:nonzero;"/><rect x="640.613" y="498.793" width="155.299" height="161.755" style="fill:#c3dafc;fill-rule:nonzero;"/><rect x="562.97" y="498.793" width="155.287" height="161.755" style="fill:#d4e4f8;fill-rule:nonzero;"/><path d="M795.815,619.526l-24.61,-0l2.171,-8.748l-2.171,-6.25l24.61,0l0,14.998Z" style="fill:#9dc3f3;fill-rule:nonzero;"/><path d="M718.256,548.851l-24.598,0l2.16,-8.746l-2.16,-6.25l24.598,0l0,14.996Z" style="fill:#e3f0ff;fill-rule:nonzero;"/><path d="M718.256,533.855l24.611,0l-2.172,8.746l2.172,6.25l-24.611,0l0,-14.996Z" style="fill:#9dc3f3;fill-rule:nonzero;"/><path d="M562.97,621.262l24.61,-0l-2.171,8.747l2.171,6.25l-24.61,0l-0,-14.997Z" style="fill:#e3f0ff;fill-rule:nonzero;"/><rect x="573.14" y="509.761" width="44.685" height="21.961" style="fill:#fff;fill-rule:nonzero;"/><rect x="646.428" y="376.192" width="117.695" height="122.601" style="fill:#f5821f;fill-rule:nonzero;"/><rect x="587.58" y="376.192" width="117.696" height="122.601" style="fill:#ff9e55;fill-rule:nonzero;"/><path d="M764.063,467.701l-18.651,-0l1.641,-6.63l-1.641,-4.738l18.651,0l0,11.368Z" style="fill:#dd732c;fill-rule:nonzero;"/><path d="M705.276,414.133l-18.651,-0l1.641,-6.63l-1.641,-4.736l18.651,-0l-0,11.366Z" style="fill:#ffb27d;fill-rule:nonzero;"/><path d="M705.276,402.767l18.651,-0l-1.641,6.629l1.641,4.737l-18.651,-0l-0,-11.366Z" style="fill:#dd732c;fill-rule:nonzero;"/><path d="M587.58,469.017l18.651,0l-1.653,6.63l1.653,4.736l-18.651,0l0,-11.366Z" style="fill:#ffb27d;fill-rule:nonzero;"/><rect x="595.289" y="384.505" width="33.863" height="16.645" style="fill:#fff;fill-rule:nonzero;"/></g><path d="M660.265,69.881c-0,-36.176 -29.37,-65.546 -65.546,-65.546l-324.651,-0c-36.176,-0 -65.546,29.37 -65.546,65.546l0,733.673c0,36.175 29.37,65.546 65.546,65.546l324.651,-0c36.176,-0 65.546,-29.371 65.546,-65.546l-0,-733.673Z" style="fill:#e3f0ff;"/><clipPath id="_clip1"><path d="M660.265,69.881c-0,-36.176 -29.37,-65.546 -65.546,-65.546l-324.651,-0c-36.176,-0 -65.546,29.37 -65.546,65.546l0,733.673c0,36.175 29.37,65.546 65.546,65.546l324.651,-0c36.176,-0 65.546,-29.371 65.546,-65.546l-0,-733.673Z"/></clipPath><g clip-path="url(#_clip1)"><path d="M558.393,4.335c0,-27.134 -22.029,-49.163 -49.162,-49.163l-154.674,-0c-27.133,-0 -49.163,22.029 -49.163,49.163c0,27.133 22.03,49.162 49.163,49.162l154.674,0c27.133,0 49.162,-22.029 49.162,-49.162Z" style="fill:#004794;"/></g><path d="M660.265,69.881c-0,-36.176 -29.37,-65.546 -65.546,-65.546l-324.651,-0c-36.176,-0 -65.546,29.37 -65.546,65.546l0,733.673c0,36.175 29.37,65.546 65.546,65.546l324.651,-0c36.176,-0 65.546,-29.371 65.546,-65.546l-0,-733.673Z" style="fill:none;stroke:#004794;stroke-width:8.67px;"/><g><rect x="114.632" y="746.62" width="155.299" height="161.755" style="fill:#c3dafc;fill-rule:nonzero;"/><rect x="36.989" y="746.62" width="155.287" height="161.755" style="fill:#d4e4f8;fill-rule:nonzero;"/><path d="M269.834,867.353l-24.61,-0l2.172,-8.748l-2.172,-6.25l24.61,0l0,14.998Z" style="fill:#9dc3f3;fill-rule:nonzero;"/><path d="M192.275,796.678l-24.598,0l2.16,-8.746l-2.16,-6.25l24.598,-0l0,14.996Z" style="fill:#e3f0ff;fill-rule:nonzero;"/><path d="M192.275,781.682l24.611,-0l-2.172,8.746l2.172,6.25l-24.611,0l0,-14.996Z" style="fill:#9dc3f3;fill-rule:nonzero;"/><path d="M36.989,869.088l24.61,0l-2.171,8.748l2.171,6.25l-24.61,-0l-0,-14.998Z" style="fill:#e3f0ff;fill-rule:nonzero;"/><rect x="47.159" y="757.588" width="44.685" height="21.961" style="fill:#fff;fill-rule:nonzero;"/><rect x="120.447" y="624.019" width="117.695" height="122.601" style="fill:#f5821f;fill-rule:nonzero;"/><rect x="61.599" y="624.019" width="117.696" height="122.601" style="fill:#ff9e55;fill-rule:nonzero;"/><path d="M238.082,715.527l-18.651,0l1.641,-6.629l-1.641,-4.738l18.651,0l0,11.367Z" style="fill:#dd732c;fill-rule:nonzero;"/><path d="M179.295,661.96l-18.651,-0l1.641,-6.63l-1.641,-4.736l18.651,-0l-0,11.366Z" style="fill:#ffb27d;fill-rule:nonzero;"/><path d="M179.295,650.594l18.651,-0l-1.641,6.629l1.641,4.737l-18.651,-0l-0,-11.366Z" style="fill:#dd732c;fill-rule:nonzero;"/><path d="M61.599,716.844l18.651,0l-1.653,6.63l1.653,4.736l-18.651,-0l0,-11.366Z" style="fill:#ffb27d;fill-rule:nonzero;"/><rect x="69.308" y="632.332" width="33.863" height="16.645" style="fill:#fff;fill-rule:nonzero;"/></g><path d="M580.332,748.66c-0,-9.6 -7.795,-17.395 -17.395,-17.395l-262.086,-0c-9.6,-0 -17.395,7.795 -17.395,17.395l-0,34.791c-0,9.601 7.795,17.396 17.395,17.396l262.086,-0c9.6,-0 17.395,-7.795 17.395,-17.396l-0,-34.791Z" style="fill:#004794;"/><text x="385.099px" y="781.727px" style="font-family:'OpenSans-Bold', 'Open Sans', sans-serif;font-weight:700;font-size:38.868px;fill:#fff;">Pr<tspan x="426.377px 449.663px 471.773px " y="781.727px 781.727px 781.727px ">ove</tspan>ď</text><path d="M602.069,160.432c0,-15.801 -12.828,-28.628 -28.628,-28.628l-280.826,-0c-15.8,-0 -28.627,12.827 -28.627,28.628c-0,15.8 12.827,28.627 28.627,28.627l280.826,0c15.8,0 28.628,-12.827 28.628,-28.627Z" style="fill:#80b4ff;"/><path d="M380.317,225.867c-0,-9.781 -7.941,-17.722 -17.722,-17.722l-80.885,-0c-9.782,-0 -17.722,7.941 -17.722,17.722c-0,9.781 7.94,17.722 17.722,17.722l80.885,-0c9.781,-0 17.722,-7.941 17.722,-17.722Z" style="fill:#80b4ff;"/><path d="M602.069,312.205c0,-4.264 -3.461,-7.725 -7.725,-7.725l-322.632,-0c-4.263,-0 -7.724,3.461 -7.724,7.725c-0,4.263 3.461,7.725 7.724,7.725l322.632,-0c4.264,-0 7.725,-3.462 7.725,-7.725Z" style="fill:#c3dafc;"/><path d="M602.069,341.287c0,-4.263 -3.461,-7.725 -7.725,-7.725l-322.632,0c-4.263,0 -7.724,3.462 -7.724,7.725c-0,4.264 3.461,7.725 7.724,7.725l322.632,0c4.264,0 7.725,-3.461 7.725,-7.725Z" style="fill:#c3dafc;"/><path d="M602.069,370.369c0,-4.263 -3.461,-7.725 -7.725,-7.725l-322.632,0c-4.263,0 -7.724,3.462 -7.724,7.725c-0,4.264 3.461,7.725 7.724,7.725l322.632,0c4.264,0 7.725,-3.461 7.725,-7.725Z" style="fill:#c3dafc;"/><path d="M602.069,403.087c0,-4.264 -3.461,-7.725 -7.725,-7.725l-322.632,-0c-4.263,-0 -7.724,3.461 -7.724,7.725c-0,4.264 3.461,7.725 7.724,7.725l322.632,-0c4.264,-0 7.725,-3.461 7.725,-7.725Z" style="fill:#c3dafc;"/><path d="M555.719,436.713c0,-4.263 -3.461,-7.725 -7.725,-7.725l-276.282,0c-4.263,0 -7.724,3.462 -7.724,7.725c-0,4.264 3.461,7.725 7.724,7.725l276.282,0c4.264,0 7.725,-3.461 7.725,-7.725Z" style="fill:#c3dafc;"/><path d="M463.019,470.34c0,-4.264 -3.461,-7.725 -7.725,-7.725l-183.582,-0c-4.263,-0 -7.724,3.461 -7.724,7.725c-0,4.263 3.461,7.725 7.724,7.725l183.582,-0c4.264,-0 7.725,-3.462 7.725,-7.725Z" style="fill:#c3dafc;"/><path d="M463.019,581.102c0,-4.263 -3.461,-7.725 -7.725,-7.725l-183.582,0c-4.263,0 -7.724,3.462 -7.724,7.725c-0,4.264 3.461,7.725 7.724,7.725l183.582,0c4.264,0 7.725,-3.461 7.725,-7.725Z" style="fill:#c3dafc;"/><path d="M555.719,612.343c0,-4.263 -3.461,-7.725 -7.725,-7.725l-276.282,0c-4.263,0 -7.724,3.462 -7.724,7.725c-0,4.264 3.461,7.725 7.724,7.725l276.282,0c4.264,0 7.725,-3.461 7.725,-7.725Z" style="fill:#c3dafc;"/><path d="M388.155,642.164c0,-4.264 -3.461,-7.725 -7.725,-7.725l-108.718,-0c-4.263,-0 -7.724,3.461 -7.724,7.725c-0,4.263 3.461,7.725 7.724,7.725l108.718,-0c4.264,-0 7.725,-3.462 7.725,-7.725Z" style="fill:#c3dafc;"/><g><rect x="339.198" y="746.62" width="38.872" height="38.872" style="fill:#fff;fill-opacity:0;"/><path d="M358.634,770.915c3.554,-0 6.479,-2.925 6.479,-6.479l-0,-8.098c-0,-3.554 -2.925,-6.479 -6.479,-6.479c-3.554,0 -6.478,2.925 -6.478,6.479l-0,8.098c-0,3.554 2.924,6.479 6.478,6.479Z" style="fill:#fff;fill-rule:nonzero;"/><path d="M369.972,764.436c-0,-0.888 -0.731,-1.62 -1.62,-1.62c-0.888,0 -1.619,0.732 -1.619,1.62c-0,4.443 -3.656,8.099 -8.099,8.099c-4.442,-0 -8.098,-3.656 -8.098,-8.099c-0,-0.888 -0.731,-1.62 -1.62,-1.62c-0.888,0 -1.619,0.732 -1.619,1.62c0.006,5.606 4.169,10.407 9.718,11.208l-0,3.369l-3.418,0c-0.791,0 -1.441,0.651 -1.441,1.442l-0,0.356c-0,0.791 0.65,1.442 1.441,1.442l10.074,-0c0.791,-0 1.442,-0.651 1.442,-1.442l-0,-0.356c-0,-0.791 -0.651,-1.442 -1.442,-1.442l-3.417,0l-0,-3.369c5.548,-0.801 9.711,-5.602 9.718,-11.208Z" style="fill:#fff;fill-rule:nonzero;"/></g></svg>