<?xml version="1.0" encoding="UTF-8" standalone="no"?><!DOCTYPE svg PUBLIC "-//W3C//DTD SVG 1.1//EN" "http://www.w3.org/Graphics/SVG/1.1/DTD/svg11.dtd"><svg width="100%" height="100%" viewBox="0 0 1920 416" version="1.1" xmlns="http://www.w3.org/2000/svg" xmlns:xlink="http://www.w3.org/1999/xlink" xml:space="preserve" xmlns:serif="http://www.serif.com/" style="fill-rule:evenodd;clip-rule:evenodd;stroke-linejoin:round;stroke-miterlimit:2;"><rect x="0" y="324.991" width="1920" height="90.262" style="fill:#c4dbf7;fill-rule:nonzero;"/><rect x="539.794" y="0" width="60.606" height="49.974" style="fill:#c3dafc;fill-rule:nonzero;"/><rect x="570.098" y="0" width="60.606" height="49.974" style="fill:#d4e4f8;fill-rule:nonzero;"/><path d="M539.83,37.3l9.603,0l-0.846,-2.702l0.846,-1.931l-9.603,0l-0,4.633Z" style="fill:#9dc3f3;fill-rule:nonzero;"/><path d="M570.098,15.466l9.603,-0l-0.846,-2.703l0.846,-1.931l-9.603,0l-0,4.634Z" style="fill:#e3f0ff;fill-rule:nonzero;"/><path d="M570.098,10.832l-9.604,0l0.846,2.702l-0.846,1.932l9.604,-0l-0,-4.634Z" style="fill:#9dc3f3;fill-rule:nonzero;"/><path d="M630.706,37.837l-9.604,-0l0.846,2.702l-0.846,1.931l9.604,0l-0,-4.633Z" style="fill:#e3f0ff;fill-rule:nonzero;"/><rect x="609.295" y="3.388" width="17.44" height="6.785" style="fill:#fff;fill-rule:nonzero;"/><rect x="926.38" y="16.657" width="40.407" height="33.316" style="fill:#c3dafc;fill-rule:nonzero;"/><rect x="946.583" y="16.657" width="40.404" height="33.316" style="fill:#d4e4f8;fill-rule:nonzero;"/><path d="M926.406,41.525l6.401,-0l-0.562,-1.802l0.562,-1.287l-6.401,-0l-0,3.089Z" style="fill:#9dc3f3;fill-rule:nonzero;"/><path d="M946.583,26.968l6.401,0l-0.562,-1.801l0.562,-1.288l-6.401,0l0,3.089Z" style="fill:#e3f0ff;fill-rule:nonzero;"/><path d="M946.583,23.879l-6.401,0l0.562,1.802l-0.562,1.287l6.401,0l0,-3.089Z" style="fill:#9dc3f3;fill-rule:nonzero;"/><path d="M986.991,41.882l-6.405,0l0.566,1.802l-0.566,1.287l6.405,0l-0,-3.089Z" style="fill:#e3f0ff;fill-rule:nonzero;"/><rect x="972.715" y="18.917" width="11.626" height="4.523" style="fill:#fff;fill-rule:nonzero;"/><rect x="837.676" y="6.781" width="52.383" height="43.193" style="fill:#c3dafc;fill-rule:nonzero;"/><rect x="863.867" y="6.781" width="52.383" height="43.193" style="fill:#d4e4f8;fill-rule:nonzero;"/><path d="M837.705,39.02l8.303,-0l-0.733,-2.336l0.733,-1.669l-8.303,0l0,4.005Z" style="fill:#9dc3f3;fill-rule:nonzero;"/><path d="M863.867,20.148l8.299,-0l-0.73,-2.336l0.73,-1.669l-8.299,0l0,4.005Z" style="fill:#e3f0ff;fill-rule:nonzero;"/><path d="M863.867,16.143l-8.299,0l0.73,2.336l-0.73,1.669l8.299,-0l0,-4.005Z" style="fill:#9dc3f3;fill-rule:nonzero;"/><path d="M916.25,39.484l-8.299,-0l0.729,2.335l-0.729,1.669l8.299,0l-0,-4.004Z" style="fill:#e3f0ff;fill-rule:nonzero;"/><rect x="897.747" y="9.71" width="15.072" height="5.864" style="fill:#fff;fill-rule:nonzero;"/><rect x="432.764" y="0" width="60.606" height="49.974" style="fill:#c3dafc;fill-rule:nonzero;"/><rect x="463.067" y="0" width="60.606" height="49.974" style="fill:#d4e4f8;fill-rule:nonzero;"/><path d="M432.799,37.3l9.603,0l-0.845,-2.702l0.845,-1.931l-9.603,0l-0,4.633Z" style="fill:#9dc3f3;fill-rule:nonzero;"/><path d="M463.067,15.466l9.603,-0l-0.845,-2.703l0.845,-1.931l-9.603,0l-0,4.634Z" style="fill:#e3f0ff;fill-rule:nonzero;"/><path d="M463.067,10.832l-9.604,0l0.846,2.702l-0.846,1.932l9.604,-0l-0,-4.634Z" style="fill:#9dc3f3;fill-rule:nonzero;"/><path d="M523.675,37.837l-9.604,-0l0.846,2.702l-0.846,1.931l9.604,0l-0,-4.633Z" style="fill:#e3f0ff;fill-rule:nonzero;"/><rect x="502.265" y="3.388" width="17.44" height="6.785" style="fill:#fff;fill-rule:nonzero;"/><rect x="1173.72" y="84.562" width="258.003" height="240.693" style="fill:#c1d8f4;fill-rule:nonzero;"/><rect x="1181.8" y="91.994" width="241.845" height="23.577" style="fill:#e3f0ff;fill-rule:nonzero;"/><rect x="1181.8" y="138.754" width="241.845" height="23.577" style="fill:#e3f0ff;fill-rule:nonzero;"/><rect x="1181.8" y="115.374" width="241.845" height="23.577" style="fill:#d4e4f8;fill-rule:nonzero;"/><rect x="1181.8" y="185.511" width="241.845" height="23.579" style="fill:#e3f0ff;fill-rule:nonzero;"/><rect x="1181.8" y="162.133" width="241.845" height="23.575" style="fill:#d4e4f8;fill-rule:nonzero;"/><rect x="1181.8" y="231.769" width="241.845" height="23.575" style="fill:#e3f0ff;fill-rule:nonzero;"/><rect x="1181.8" y="208.387" width="241.845" height="23.579" style="fill:#d4e4f8;fill-rule:nonzero;"/><rect x="1181.8" y="254.935" width="241.845" height="23.579" style="fill:#d4e4f8;fill-rule:nonzero;"/><rect x="1181.8" y="278.514" width="241.845" height="23.575" style="fill:#e3f0ff;fill-rule:nonzero;"/><rect x="1181.8" y="301.68" width="241.845" height="23.575" style="fill:#d4e4f8;fill-rule:nonzero;"/><rect x="1173.72" y="22.755" width="258.003" height="44.673" style="fill:#d5e5fb;fill-rule:nonzero;"/><rect x="393.56" y="49.974" width="23.311" height="278.038" style="fill:#c3dafc;fill-rule:nonzero;"/><rect x="649.132" y="49.974" width="19.377" height="278.038" style="fill:#c3dafc;fill-rule:nonzero;"/><rect x="416.871" y="49.974" width="251.638" height="7.236" style="fill:#699dee;fill-rule:nonzero;"/><rect x="416.871" y="181.757" width="251.638" height="7.238" style="fill:#699dee;fill-rule:nonzero;"/><rect x="416.871" y="292.287" width="251.638" height="7.234" style="fill:#699dee;fill-rule:nonzero;"/><rect x="543.991" y="130.091" width="62.659" height="51.666" style="fill:#a9c8ed;fill-rule:nonzero;"/><rect x="575.321" y="130.091" width="62.659" height="51.666" style="fill:#d4e4f8;fill-rule:nonzero;"/><path d="M544.028,168.653l9.929,0l-0.875,-2.793l0.875,-1.996l-9.929,0l-0,4.789Z" style="fill:#9dc3f3;fill-rule:nonzero;"/><path d="M575.321,146.08l9.929,-0l-0.875,-2.794l0.875,-1.996l-9.929,-0l0,4.79Z" style="fill:#e3f0ff;fill-rule:nonzero;"/><path d="M575.321,141.29l-9.929,-0l0.874,2.794l-0.874,1.996l9.929,-0l0,-4.79Z" style="fill:#9dc3f3;fill-rule:nonzero;"/><path d="M637.982,169.208l-9.929,-0l0.874,2.795l-0.874,1.998l9.929,0l-0,-4.793Z" style="fill:#e3f0ff;fill-rule:nonzero;"/><rect x="615.847" y="133.594" width="18.031" height="7.015" style="fill:#fff;fill-rule:nonzero;"/><rect x="463.579" y="130.091" width="62.659" height="51.666" style="fill:#c3dafc;fill-rule:nonzero;"/><rect x="494.909" y="130.091" width="62.659" height="51.666" style="fill:#d4e4f8;fill-rule:nonzero;"/><path d="M463.616,168.653l9.929,0l-0.875,-2.793l0.875,-1.996l-9.929,0l-0,4.789Z" style="fill:#9dc3f3;fill-rule:nonzero;"/><path d="M494.909,146.08l9.929,-0l-0.875,-2.794l0.875,-1.996l-9.929,-0l-0,4.79Z" style="fill:#e3f0ff;fill-rule:nonzero;"/><path d="M494.909,141.29l-9.929,-0l0.874,2.794l-0.874,1.996l9.929,-0l-0,-4.79Z" style="fill:#9dc3f3;fill-rule:nonzero;"/><path d="M557.569,169.208l-9.928,-0l0.874,2.795l-0.874,1.998l9.928,0l0,-4.793Z" style="fill:#e3f0ff;fill-rule:nonzero;"/><path d="M557.569,140.609l-9.928,-0l0.874,2.794l-0.874,1.996l9.928,-0l0,-4.79Z" style="fill:#e3f0ff;fill-rule:nonzero;"/><rect x="501.237" y="164.791" width="29.389" height="11.432" style="fill:#fff;fill-rule:nonzero;"/><rect x="543.991" y="247.462" width="54.157" height="44.657" style="fill:#c3dafc;fill-rule:nonzero;"/><rect x="571.07" y="247.462" width="54.157" height="44.657" style="fill:#d4e4f8;fill-rule:nonzero;"/><path d="M544.023,280.795l8.582,-0l-0.757,-2.415l0.757,-1.727l-8.582,0l-0,4.142Z" style="fill:#9dc3f3;fill-rule:nonzero;"/><path d="M571.07,261.283l8.582,0l-0.757,-2.415l0.757,-1.726l-8.582,-0l0,4.141Z" style="fill:#e3f0ff;fill-rule:nonzero;"/><path d="M571.07,257.142l-8.582,-0l0.756,2.415l-0.756,1.726l8.582,0l0,-4.141Z" style="fill:#9dc3f3;fill-rule:nonzero;"/><path d="M625.228,281.275l-8.581,0l0.756,2.415l-0.756,1.723l8.581,0l0,-4.138Z" style="fill:#e3f0ff;fill-rule:nonzero;"/><rect x="606.097" y="250.491" width="15.585" height="6.062" style="fill:#fff;fill-rule:nonzero;"/><rect x="441.134" y="240.455" width="62.659" height="51.665" style="fill:#c3dafc;fill-rule:nonzero;"/><rect x="472.464" y="240.455" width="62.66" height="51.665" style="fill:#d4e4f8;fill-rule:nonzero;"/><path d="M441.171,279.016l9.929,0l-0.875,-2.795l0.875,-1.994l-9.929,-0l-0,4.789Z" style="fill:#004794;fill-rule:nonzero;"/><path d="M472.464,256.442l9.929,-0l-0.874,-2.795l0.874,-1.995l-9.929,0l0,4.79Z" style="fill:#618dc1;fill-rule:nonzero;"/><path d="M472.464,251.652l-9.929,0l0.875,2.795l-0.875,1.995l9.929,-0l0,-4.79Z" style="fill:#004794;fill-rule:nonzero;"/><path d="M535.125,279.571l-9.929,-0l0.875,2.794l-0.875,1.995l9.929,0l0,-4.789Z" style="fill:#618dc1;fill-rule:nonzero;"/><rect x="512.989" y="243.956" width="18.032" height="7.015" style="fill:#fff;fill-rule:nonzero;"/><rect x="458.771" y="90.355" width="47.903" height="39.499" style="fill:#c3dafc;fill-rule:nonzero;"/><rect x="482.723" y="90.355" width="47.903" height="39.499" style="fill:#d4e4f8;fill-rule:nonzero;"/><path d="M458.799,119.837l7.591,0l-0.669,-2.136l0.669,-1.526l-7.591,-0l-0,3.662Z" style="fill:#9dc3f3;fill-rule:nonzero;"/><path d="M482.723,102.579l7.59,-0l-0.669,-2.136l0.669,-1.526l-7.59,-0l-0,3.662Z" style="fill:#e3f0ff;fill-rule:nonzero;"/><path d="M482.723,98.917l-7.591,-0l0.668,2.136l-0.668,1.526l7.591,-0l-0,-3.662Z" style="fill:#9dc3f3;fill-rule:nonzero;"/><path d="M530.626,120.261l-7.59,-0l0.668,2.136l-0.668,1.526l7.59,0l0,-3.662Z" style="fill:#e3f0ff;fill-rule:nonzero;"/><rect x="513.704" y="93.033" width="13.785" height="5.363" style="fill:#fff;fill-rule:nonzero;"/><rect x="544.358" y="90.355" width="47.903" height="39.499" style="fill:#c3dafc;fill-rule:nonzero;"/><rect x="568.309" y="90.355" width="47.903" height="39.499" style="fill:#d4e4f8;fill-rule:nonzero;"/><path d="M544.386,119.837l7.59,0l-0.668,-2.136l0.668,-1.526l-7.59,-0l-0,3.662Z" style="fill:#9dc3f3;fill-rule:nonzero;"/><path d="M568.309,102.579l7.591,-0l-0.669,-2.136l0.669,-1.526l-7.591,-0l0,3.662Z" style="fill:#e3f0ff;fill-rule:nonzero;"/><path d="M568.309,98.917l-7.59,-0l0.668,2.136l-0.668,1.526l7.59,-0l0,-3.662Z" style="fill:#9dc3f3;fill-rule:nonzero;"/><path d="M616.213,120.261l-7.591,-0l0.669,2.136l-0.669,1.526l7.591,0l-0,-3.662Z" style="fill:#e3f0ff;fill-rule:nonzero;"/><rect x="599.291" y="93.033" width="13.785" height="5.363" style="fill:#fff;fill-rule:nonzero;"/><rect x="475.153" y="210.486" width="36.307" height="29.939" style="fill:#f5821f;fill-rule:nonzero;"/><rect x="456.999" y="210.486" width="36.307" height="29.939" style="fill:#ff9e55;fill-rule:nonzero;"/><path d="M511.439,232.833l-5.753,0l0.506,-1.619l-0.506,-1.157l5.753,-0l-0,2.776Z" style="fill:#dd732c;fill-rule:nonzero;"/><path d="M493.306,219.752l-5.753,0l0.507,-1.618l-0.507,-1.158l5.753,0l0,2.776Z" style="fill:#ffb27d;fill-rule:nonzero;"/><path d="M493.306,216.976l5.754,0l-0.507,1.619l0.507,1.157l-5.754,0l0,-2.776Z" style="fill:#dd732c;fill-rule:nonzero;"/><path d="M456.998,233.153l5.753,0l-0.506,1.619l0.506,1.157l-5.753,0l0,-2.776Z" style="fill:#ffb27d;fill-rule:nonzero;"/><rect x="459.376" y="212.518" width="10.448" height="4.064" style="fill:#fff;fill-rule:nonzero;"/><rect x="416.871" y="49.974" width="57.121" height="57.121" style="fill:#fff;fill-rule:nonzero;"/><rect x="419.923" y="53.026" width="51.018" height="51.018" style="fill:#f5821f;fill-rule:nonzero;"/><rect x="745.7" y="49.974" width="21.316" height="278.038" style="fill:#c3dafc;fill-rule:nonzero;"/><rect x="997.965" y="49.974" width="20.691" height="278.038" style="fill:#c3dafc;fill-rule:nonzero;"/><rect x="767.017" y="49.974" width="251.639" height="6.521" style="fill:#699dee;fill-rule:nonzero;"/><rect x="767.017" y="181.757" width="251.639" height="7.238" style="fill:#699dee;fill-rule:nonzero;"/><rect x="767.017" y="292.287" width="251.639" height="8.619" style="fill:#699dee;fill-rule:nonzero;"/><rect x="894.137" y="130.091" width="62.661" height="51.666" style="fill:#c3dafc;fill-rule:nonzero;"/><rect x="925.468" y="130.091" width="62.661" height="51.666" style="fill:#d4e4f8;fill-rule:nonzero;"/><path d="M894.174,168.653l9.929,0l-0.874,-2.793l0.874,-1.996l-9.929,0l0,4.789Z" style="fill:#9dc3f3;fill-rule:nonzero;"/><path d="M925.468,146.08l9.929,-0l-0.875,-2.794l0.875,-1.996l-9.929,-0l-0,4.79Z" style="fill:#e3f0ff;fill-rule:nonzero;"/><path d="M925.468,141.29l-9.929,-0l0.875,2.794l-0.875,1.996l9.929,-0l-0,-4.79Z" style="fill:#9dc3f3;fill-rule:nonzero;"/><path d="M988.129,169.208l-9.928,-0l0.874,2.795l-0.874,1.998l9.928,0l0,-4.793Z" style="fill:#e3f0ff;fill-rule:nonzero;"/><rect x="965.994" y="133.594" width="18.03" height="7.015" style="fill:#fff;fill-rule:nonzero;"/><rect x="813.728" y="130.091" width="62.658" height="51.666" style="fill:#c3dafc;fill-rule:nonzero;"/><rect x="845.055" y="130.091" width="62.661" height="51.666" style="fill:#d4e4f8;fill-rule:nonzero;"/><path d="M813.762,168.653l9.928,0l-0.874,-2.793l0.874,-1.996l-9.928,0l-0,4.789Z" style="fill:#233862;fill-rule:nonzero;"/><path d="M845.055,146.08l9.929,-0l-0.875,-2.794l0.875,-1.996l-9.929,-0l0,4.79Z" style="fill:#004794;fill-rule:nonzero;"/><path d="M845.055,141.29l-9.929,-0l0.875,2.794l-0.875,1.996l9.929,-0l0,-4.79Z" style="fill:#233862;fill-rule:nonzero;"/><path d="M907.717,169.208l-9.929,-0l0.874,2.795l-0.874,1.998l9.929,0l-0,-4.793Z" style="fill:#004794;fill-rule:nonzero;"/><rect x="850.02" y="166.811" width="24.197" height="9.412" style="fill:#fff;fill-rule:nonzero;"/><rect x="802.035" y="248.195" width="53.269" height="43.924" style="fill:#c3dafc;fill-rule:nonzero;"/><rect x="828.67" y="248.195" width="53.269" height="43.924" style="fill:#d4e4f8;fill-rule:nonzero;"/><path d="M802.065,280.981l8.444,0l-0.744,-2.374l0.744,-1.701l-8.444,0l0,4.075Z" style="fill:#9dc3f3;fill-rule:nonzero;"/><path d="M828.67,261.79l8.44,-0l-0.741,-2.378l0.741,-1.697l-8.44,-0l-0,4.075Z" style="fill:#e3f0ff;fill-rule:nonzero;"/><path d="M828.67,257.715l-8.44,-0l0.744,2.378l-0.744,1.697l8.44,-0l-0,-4.075Z" style="fill:#9dc3f3;fill-rule:nonzero;"/><path d="M881.942,281.45l-8.444,-0l0.744,2.378l-0.744,1.697l8.444,-0l-0,-4.075Z" style="fill:#e3f0ff;fill-rule:nonzero;"/><rect x="863.123" y="251.172" width="15.329" height="5.965" style="fill:#fff;fill-rule:nonzero;"/><rect x="888.402" y="248.087" width="53.399" height="44.032" style="fill:#c3dafc;fill-rule:nonzero;"/><rect x="915.104" y="248.087" width="53.399" height="44.032" style="fill:#d4e4f8;fill-rule:nonzero;"/><path d="M888.432,280.951l8.463,0l-0.745,-2.378l0.745,-1.704l-8.463,-0l0,4.082Z" style="fill:#9dc3f3;fill-rule:nonzero;"/><path d="M915.104,261.715l8.458,0l-0.744,-2.382l0.744,-1.7l-8.458,-0l-0,4.082Z" style="fill:#e3f0ff;fill-rule:nonzero;"/><path d="M915.104,257.633l-8.463,-0l0.744,2.381l-0.744,1.701l8.463,0l-0,-4.082Z" style="fill:#9dc3f3;fill-rule:nonzero;"/><g><path d="M839.246,281.424l-8.459,-0l0.744,2.382l-0.744,1.7l8.459,0l-0,-4.082Z" style="fill:#e3f0ff;fill-rule:nonzero;"/><rect x="820.382" y="251.072" width="15.369" height="5.98" style="fill:#fff;fill-rule:nonzero;"/><rect x="805.738" y="229.078" width="32.897" height="27.126" style="fill:#d8702a;fill-rule:nonzero;"/><rect x="789.293" y="229.078" width="32.894" height="27.126" style="fill:#ff9e55;fill-rule:nonzero;"/><path d="M838.617,249.327l-5.214,-0l0.462,-1.467l-0.462,-1.049l5.214,-0l0,2.516Z" style="fill:#c15e1b;fill-rule:nonzero;"/><path d="M822.187,237.474l-5.21,-0l0.458,-1.466l-0.458,-1.05l5.21,0l-0,2.516Z" style="fill:#ffb27d;fill-rule:nonzero;"/><path d="M822.187,234.958l5.214,0l-0.458,1.466l0.458,1.05l-5.214,-0l-0,-2.516Z" style="fill:#c15e1b;fill-rule:nonzero;"/><path d="M789.289,249.617l5.214,-0l-0.458,1.466l0.458,1.049l-5.214,0l0,-2.515Z" style="fill:#ffb27d;fill-rule:nonzero;"/><rect x="791.444" y="230.92" width="9.467" height="3.681" style="fill:#fff;fill-rule:nonzero;"/><path d="M804.812,255.05c-0.801,-0.517 -2.609,-1.656 -2.691,-1.384c-0.06,0.193 0.048,0.521 0.272,0.856c-1.08,-0.358 -2.174,-0.577 -4.715,0.011c-0.51,0.119 -0.961,0.428 -1.228,0.878c-0.246,0.417 -0.324,0.93 0.346,1.31c1.339,0.763 0.941,0.29 2.802,1.403c1.861,1.113 4.097,1.329 5.392,0.447l1.772,-0.365l0.108,-2.94c-0,-0 -1.02,-0.082 -2.058,-0.216Z" style="fill:#ffb27d;fill-rule:nonzero;"/><path d="M850.92,224.776c0,0 -5.05,4.127 -9.929,1.091c0,-0 -0.621,-2.951 -0.256,-4.976c0.044,-0.246 0.085,-0.487 0.126,-0.718c0.395,-2.278 0.558,-3.569 0.558,-3.569l0.008,-0c0.257,-0.056 8.663,-1.797 8.607,-1.533c-1.287,6.125 0.886,9.705 0.886,9.705Z" style="fill:#ffb27d;fill-rule:nonzero;"/><path d="M848.978,216.392c-1.016,1.254 -4.113,3.498 -8.117,3.781c0.395,-2.278 0.558,-3.569 0.558,-3.569l0.008,-0c0.227,-0.019 7.852,-0.581 7.551,-0.212Z" style="fill:#ed975d;fill-rule:nonzero;"/><path d="M839.83,216.061c0,-0 8.392,3.71 10.621,-1.552c2.233,-5.262 4.816,-8.325 -0.446,-10.919c-5.266,-2.59 -7.164,-1.027 -8.336,0.547c-1.173,1.578 -3.964,10.822 -1.839,11.924Z" style="fill:#ffb27d;fill-rule:nonzero;"/><path d="M849.871,215.949c0.108,0.097 1.886,1.035 6.799,-5.422c0.774,-1.016 1.607,-3.364 0.699,-5.746c-0.908,-2.385 -5.232,-4.938 -8.953,-6.393c-3.718,-1.455 -5.05,0.543 -6.368,2.552c-1.384,2.111 -4.492,3.48 -4.492,3.48c2.978,2.482 7.484,0.577 8.787,1.273c1.306,0.696 1.388,2.977 1.362,3.695c-0.03,0.722 0.022,1.336 1.883,1.035c1.864,-0.298 0.327,2.623 -0.063,3.163c-0,-0 -0.533,1.533 0.346,2.363Z" style="fill:#a9453d;fill-rule:nonzero;"/><path d="M862.717,356.109l5.407,0c1.135,0 2.393,-1.135 2.709,-3.215c0.317,-2.077 2.646,-3.212 3.153,-4.912c0.502,-1.705 -2.081,-4.098 -2.081,-4.098l-0.431,-0.554l-0.451,-0.581l-4.287,1.009c0,-0 -0.104,1.02 -0.171,2.318c-0.045,0.938 -0.071,2.025 -0.015,2.974c0.123,2.27 -0.636,4.715 -2.653,5.154c-2.017,0.443 -1.18,1.905 -1.18,1.905Z" style="fill:#2c3a64;fill-rule:nonzero;"/><path d="M825.06,356.109l14.339,0c0.137,-0.026 0.241,-0.056 0.305,-0.089c0.956,-0.48 0.655,-4.142 0.543,-5.277c-0.022,-0.208 -0.041,-0.331 -0.041,-0.331c0,-0 -5.039,-4.031 -5.735,-0.945c-0.022,0.096 -0.048,0.189 -0.074,0.282l-0,0.004c-0.875,2.888 -4.786,4.202 -7.045,4.566c-1.726,0.283 -2.177,1.288 -2.292,1.79Z" style="fill:#2c3a64;fill-rule:nonzero;"/><path d="M827.951,273.43c0,0 0.767,9.553 1.664,21.034c1.224,15.6 2.694,34.762 2.839,38.39c0.253,6.304 1.262,16.386 1.262,16.386c-0,-0 2.393,2.396 7.186,1.384c0,-0 4.269,-14.391 5.485,-29.619c0.023,-0.249 0.041,-0.502 0.06,-0.752c1.135,-15.503 2.895,-48.148 2.895,-48.148l-21.391,1.325Z" style="fill:#ff9e55;fill-rule:nonzero;"/><path d="M830.802,272.794c0,-0 -0.495,5.958 2.263,17.144c2.024,8.206 13.322,31.067 13.322,31.067c0.023,-0.249 0.041,-0.502 0.06,-0.752c1.135,-15.503 2.895,-48.148 2.895,-48.148l-18.54,0.689Z" style="fill:#f5821f;fill-rule:nonzero;"/><path d="M830.802,272.794c0,-0 14.447,36.366 23.519,52.625c9.077,16.259 11.913,20.795 11.913,20.795c-0,-0 5.199,-2.08 5.671,-3.498c0,-0 -3.472,-31.387 -9.549,-39.038c-3.431,-4.324 -7.465,-17.297 -7.655,-21.834c-0.19,-4.54 -1.228,-13.52 -1.228,-13.52l-22.671,4.47Z" style="fill:#ff9e55;fill-rule:nonzero;"/><path d="M830.076,272.105c2.021,0.123 23.349,-0.684 23.352,-1.875c0.019,-4.142 0.886,-10.848 1.969,-18.991c0.197,-1.518 0.354,-3.021 0.465,-4.51c0.302,-3.878 0.313,-7.61 0.026,-10.982c-0.539,-6.263 -3.2,-11.317 -5.913,-13.673c-0.357,-0.297 -1.671,0.7 -3.874,1.593c-2.039,0.826 -3.651,0.235 -5.482,-0.275l-2.341,2.058c-1.946,1.816 -4.034,4.581 -5.05,7.074c0,0 -3.33,39.57 -3.152,39.581Z" style="fill:#004794;fill-rule:nonzero;"/><path d="M833.228,232.524l5.824,1.355l8.016,21.707c1.154,3.119 4.124,5.188 7.447,5.188l-0.703,10.717l-25.861,1.939l5.277,-40.906Z" style="fill:#ff9e55;fill-rule:nonzero;"/><path d="M805.299,256.695c-0.186,-1.697 0.685,-2.013 0.685,-2.013c-0,-0 17.167,-3.8 18.618,-4.321c1.452,-0.517 13.516,-14.078 13.516,-14.078c0,-0 4.604,-5.619 8.597,-4.574c3.468,0.912 4.912,3.532 5.467,6.062c0.658,3.015 -0.622,6.122 -3.19,7.838c-5.757,3.848 -17.293,11.432 -20.043,12.355c-6.122,2.054 -22.824,1.031 -22.824,1.031c0,-0 -0.684,-0.968 -0.826,-2.3Z" style="fill:#004794;fill-rule:nonzero;"/><path d="M845.089,227.59c1.358,-1.258 5.705,-4.719 5.705,-4.719l-0.819,-0.797c-0.581,-0.122 -5.072,3.26 -6.572,4.593c-1.801,1.604 -6.803,6.847 -6.803,6.847l2.452,0.365c0,-0 4.44,-4.804 6.037,-6.289Z" style="fill:#f5821f;fill-rule:nonzero;"/></g><rect x="808.883" y="90.66" width="47.906" height="39.499" style="fill:#c3dafc;fill-rule:nonzero;"/><rect x="832.838" y="90.66" width="47.902" height="39.499" style="fill:#d4e4f8;fill-rule:nonzero;"/><path d="M808.913,120.142l7.591,0l-0.67,-2.136l0.67,-1.526l-7.591,0l-0,3.662Z" style="fill:#9dc3f3;fill-rule:nonzero;"/><path d="M832.838,102.884l7.588,0l-0.666,-2.136l0.666,-1.526l-7.588,0l-0,3.662Z" style="fill:#e3f0ff;fill-rule:nonzero;"/><path d="M832.838,99.222l-7.592,0l0.67,2.136l-0.67,1.526l7.592,0l-0,-3.662Z" style="fill:#9dc3f3;fill-rule:nonzero;"/><path d="M880.74,120.566l-7.592,0l0.67,2.136l-0.67,1.526l7.592,0l-0,-3.662Z" style="fill:#e3f0ff;fill-rule:nonzero;"/><rect x="863.819" y="93.339" width="13.784" height="5.363" style="fill:#fff;fill-rule:nonzero;"/><rect x="907.854" y="100.188" width="36.306" height="29.938" style="fill:#f5821f;fill-rule:nonzero;"/><rect x="889.701" y="100.188" width="36.306" height="29.938" style="fill:#ff9e55;fill-rule:nonzero;"/><path d="M944.142,122.534l-5.753,-0l0.506,-1.619l-0.506,-1.157l5.753,-0l-0,2.776Z" style="fill:#dd732c;fill-rule:nonzero;"/><path d="M926.007,109.453l-5.753,-0l0.506,-1.619l-0.506,-1.157l5.753,0l0,2.776Z" style="fill:#ffb27d;fill-rule:nonzero;"/><path d="M926.007,106.677l5.754,0l-0.506,1.619l0.506,1.157l-5.754,-0l0,-2.776Z" style="fill:#dd732c;fill-rule:nonzero;"/><path d="M889.701,122.855l5.754,0l-0.51,1.619l0.51,1.157l-5.754,-0l0,-2.776Z" style="fill:#ffb27d;fill-rule:nonzero;"/><rect x="892.079" y="102.218" width="10.446" height="4.065" style="fill:#fff;fill-rule:nonzero;"/><rect x="767.017" y="49.974" width="57.124" height="57.121" style="fill:#fff;fill-rule:nonzero;"/><rect x="770.068" y="53.026" width="51.021" height="51.018" style="fill:#f5821f;fill-rule:nonzero;"/><g><path d="M1502.05,380.306l-33.984,0c-4.123,0 -7.495,-3.372 -7.495,-7.495l-0,-30.683c-0,-4.123 3.372,-7.499 7.495,-7.499l33.984,0c4.123,0 7.495,3.376 7.495,7.499l-0,30.683c-0,4.123 -3.372,7.495 -7.495,7.495Z" style="fill:#163560;fill-rule:nonzero;"/><path d="M1410.82,266.78c0,0 -3.126,0.153 -3.762,-0.104c-0.633,-0.261 -2.382,-1.288 -2.125,-2.445c0.156,-0.718 1.455,0.428 1.983,0.216c0.529,-0.212 -1.079,-0.369 -1.161,-0.64c-0.078,-0.272 1.329,-0.413 1.835,-0.499c0.502,-0.089 1.965,1.083 3.118,1.395c1.154,0.317 0.112,2.077 0.112,2.077Z" style="fill:#ffb27d;fill-rule:nonzero;"/><path d="M1451.68,263.382c0,0 -4.339,4.913 -9.608,5.616c-5.27,0.703 -13.051,2.266 -15.452,2.289c-2.4,0.022 -16.024,-4.217 -16.024,-4.217c-0,0 -0.257,-0.431 0.041,-1.403c0.283,-0.926 0.964,-1.306 0.964,-1.306c-0,0 9.34,0.231 13.698,0.841c1.813,0.253 14.149,-7.104 16.084,-11.544c0.759,-1.741 10.297,9.724 10.297,9.724Z" style="fill:#ed7d2b;fill-rule:nonzero;"/><rect x="1238.02" y="306.633" width="86.292" height="71.154" style="fill:#f5821f;fill-rule:nonzero;"/><rect x="1194.87" y="306.633" width="86.296" height="71.154" style="fill:#ff9e55;fill-rule:nonzero;"/><path d="M1324.27,359.741l-13.676,0l1.206,-3.848l-1.206,-2.75l13.676,0l0,6.598Z" style="fill:#dd732c;fill-rule:nonzero;"/><path d="M1281.17,328.653l-13.677,-0l1.206,-3.848l-1.206,-2.751l13.677,0l-0,6.599Z" style="fill:#ffb27d;fill-rule:nonzero;"/><path d="M1281.17,322.054l13.672,0l-1.202,3.848l1.202,2.751l-13.672,-0l-0,-6.599Z" style="fill:#dd732c;fill-rule:nonzero;"/><path d="M1194.87,360.504l13.673,0l-1.202,3.848l1.202,2.75l-13.673,0l0,-6.598Z" style="fill:#ffb27d;fill-rule:nonzero;"/><rect x="1200.52" y="311.456" width="24.833" height="9.661" style="fill:#fff;fill-rule:nonzero;"/><rect x="1228.72" y="235.542" width="86.296" height="71.154" style="fill:#f5821f;fill-rule:nonzero;"/><rect x="1185.58" y="235.542" width="86.293" height="71.154" style="fill:#ff9e55;fill-rule:nonzero;"/><path d="M1314.97,288.651l-13.673,-0l1.202,-3.848l-1.202,-2.75l13.673,-0l-0,6.598Z" style="fill:#dd732c;fill-rule:nonzero;"/><path d="M1271.87,257.562l-13.673,0l1.202,-3.848l-1.202,-2.75l13.673,-0l-0,6.598Z" style="fill:#ffb27d;fill-rule:nonzero;"/><path d="M1271.87,250.964l13.676,-0l-1.206,3.848l1.206,2.75l-13.676,0l-0,-6.598Z" style="fill:#dd732c;fill-rule:nonzero;"/><path d="M1185.57,289.414l13.677,-0l-1.206,3.848l1.206,2.75l-13.677,-0l0,-6.598Z" style="fill:#ffb27d;fill-rule:nonzero;"/><rect x="1191.22" y="240.365" width="24.833" height="9.661" style="fill:#fff;fill-rule:nonzero;"/><rect x="1339.32" y="201.808" width="22.887" height="180.668" style="fill:#163560;fill-rule:nonzero;"/><path d="M1484.95,339.489l-57.994,0c-4.276,0 -7.775,-3.498 -7.775,-7.774l0,-14.551c0,-4.275 3.499,-7.774 7.775,-7.774l57.994,0c4.276,0 7.774,3.499 7.774,7.774l0,14.551c0,4.276 -3.498,7.774 -7.774,7.774Z" style="fill:#699dee;fill-rule:nonzero;"/><path d="M1369.81,362.838l93.162,3.777l-0,-38.457l-94.707,1.548l1.545,33.132Z" style="fill:#234884;fill-rule:nonzero;"/><path d="M1345.77,371.419c-0,-15.927 12.913,-28.841 28.841,-28.841c15.931,0 28.841,12.914 28.841,28.841c-0,15.932 -12.91,28.845 -28.841,28.845c-15.928,0 -28.841,-12.913 -28.841,-28.845Z" style="fill:#004794;fill-rule:nonzero;"/><path d="M1357.99,371.419c-0,-9.177 7.443,-16.62 16.62,-16.62c9.181,0 16.62,7.443 16.62,16.62c-0,9.181 -7.439,16.624 -16.62,16.624c-9.177,-0 -16.62,-7.443 -16.62,-16.624Z" style="fill:#163560;fill-rule:nonzero;"/><path d="M1480.98,377.53c-0,-12.553 10.178,-22.731 22.73,-22.731c12.556,0 22.731,10.178 22.731,22.731c-0,12.556 -10.175,22.734 -22.731,22.734c-12.552,0 -22.73,-10.178 -22.73,-22.734Z" style="fill:#004794;fill-rule:nonzero;"/><path d="M1490.61,377.53c-0,-7.235 5.865,-13.096 13.099,-13.096c7.235,0 13.099,5.861 13.099,13.096c0,7.234 -5.864,13.099 -13.099,13.099c-7.234,0 -13.099,-5.865 -13.099,-13.099Z" style="fill:#163560;fill-rule:nonzero;"/><path d="M1487.23,303.436l-0,17.171l-24.037,-0l-57.452,37.765l0,28.067l56.845,-0c5.943,-0 10.763,-4.819 10.763,-10.762l-0,-6.345c-0,-6.863 3.364,-13.29 9.009,-17.197c3.171,-2.2 6.937,-3.376 10.796,-3.376l18.146,0c4.908,0 8.89,-3.978 8.89,-8.89l0,-26.906c0,-5.262 -4.264,-9.527 -9.523,-9.527l-23.437,0Z" style="fill:#ff9e55;fill-rule:nonzero;"/><path d="M1370.09,338.89l-7.889,-0.871l44.307,-105.011c5.798,-13.739 19.18,-22.619 34.096,-22.619l37.166,0c9.162,0 16.616,7.454 16.616,16.616l-0,93.602l-7.551,-0l0,-93.602c0,-4.994 -4.067,-9.061 -9.065,-9.061l-37.166,-0c-11.872,-0 -22.522,7.067 -27.137,18.004l-43.377,102.942Z" style="fill:#163560;fill-rule:nonzero;"/><path d="M1408.03,388.497c-1.139,-0 -2.062,-0.919 -2.062,-2.058l0,-21.134c0,-14.551 -11.837,-26.389 -26.388,-26.389c-0.078,0 -0.16,-0.003 -0.238,-0.015c-0.16,-0.018 -16.338,-1.756 -28.704,7.879c-0.897,0.699 -2.192,0.539 -2.888,-0.358c-0.699,-0.9 -0.539,-2.192 0.358,-2.891c13.274,-10.346 29.846,-8.917 31.587,-8.734c16.773,0.063 30.393,13.724 30.393,30.508l0,21.134c0,1.139 -0.923,2.058 -2.058,2.058Z" style="fill:#163560;fill-rule:nonzero;"/><rect x="1188.13" y="376.949" width="151.187" height="5.526" style="fill:#163560;fill-rule:nonzero;"/><rect x="1334.17" y="317.857" width="5.147" height="64.619" style="fill:#163560;fill-rule:nonzero;"/><path d="M1472.1,274.8l-2.725,34.59l-42.911,0c-0,0 -2.267,-9.668 4.849,-10.088c7.119,-0.421 24.163,-2.992 24.163,-2.992c-0,-0 -0.837,-21.484 12.292,-25.068c2.296,-0.625 4.518,1.224 4.332,3.558Z" style="fill:#004794;fill-rule:nonzero;"/><path d="M1448.52,251.429c0,0 -4.395,2.672 -9.162,1.917c0,-0 -0.945,-0.242 -0.48,-1.347c-0.29,-0.894 -0.257,-0.812 -0.424,-1.478c-0.417,-1.526 -0.547,-2.408 -0.547,-2.408l2.705,-2.843l2.564,-2.716c0.707,6.493 5.344,8.875 5.344,8.875Z" style="fill:#ffb27d;fill-rule:nonzero;"/><path d="M1443.59,245.017c-0,0 -1.47,3.934 -5.132,5.504c-0.417,-1.526 -0.689,-3.122 -0.689,-3.122l2.847,-2.129l2.974,-0.253Z" style="fill:#ed985f;fill-rule:nonzero;"/><path d="M1434.87,247.976c-0,-0 8.388,1.049 8.98,-4.105c0.588,-5.158 2.065,-8.496 -3.264,-9.382c-5.333,-0.889 -6.602,0.964 -7.223,2.639c-0.622,1.674 -0.663,10.442 1.507,10.848Z" style="fill:#ffb27d;fill-rule:nonzero;"/><path d="M1446.5,233.652c0.074,-0.089 0.245,-0.168 0.632,-0.205c0,0 -0.316,-0.182 -0.733,-0.175c-0.1,-0.539 -0.424,-1.485 -1.362,-1.682c-0,0 0.51,0.25 0.595,0.823c-1.12,-1.068 -3.457,-1.787 -9.828,-1.039c-8.399,0.983 -5.418,6.271 -4.306,6.874c1.117,0.599 3.796,-1.265 5.832,-1.184c2.039,0.086 2.534,3.007 3.241,3.383c0.704,0.38 0.406,-0.324 1.321,-0.781c0.916,-0.458 1.065,1.086 0.834,2.099c-0.231,1.016 1.098,2.292 1.098,2.292l1.243,-1.444c1.243,-1.444 2.24,-7.394 1.604,-8.63c-0.056,-0.112 -0.112,-0.219 -0.171,-0.331Z" style="fill:#2c3a64;fill-rule:nonzero;"/><path d="M1456.41,283.571c-0,0 -38.267,1.708 -43.489,5.497c-5.217,3.788 -14.353,35.74 -14.353,35.74c-0,0 1.853,1.612 7.346,0c-0,0 7.733,-9.847 10.692,-16.605c2.627,-5.999 3.565,-9.02 4.689,-8.715c2.392,0.655 26.931,1.499 34.181,-3.178c4.644,-3 0.324,-12.743 0.934,-12.739Z" style="fill:#163560;fill-rule:nonzero;"/><path d="M1448.52,250.651c0,0 4.901,4.034 6.453,16.084c1.548,12.05 3.279,22.649 2.33,23.077c-6.71,3.029 -24.755,-0.063 -24.305,-7.234c0.45,-7.172 2.106,-28.414 6.36,-30.297c4.25,-1.886 9.162,-1.63 9.162,-1.63Z" style="fill:#ff9e55;fill-rule:nonzero;"/><path d="M1413.57,283.85c-0.797,0.335 -1.716,-0.044 -2.051,-0.841l-7.945,-19.039c-0.331,-0.796 0.044,-1.715 0.841,-2.046c0.796,-0.335 1.715,0.044 2.047,0.841l7.949,19.038c0.331,0.797 -0.049,1.716 -0.841,2.047Z" style="fill:#163560;fill-rule:nonzero;"/><path d="M1413.08,273.133c0,-0 -3.018,0.822 -3.695,0.707c-0.678,-0.116 -2.605,-0.745 -2.605,-1.928c-0,-0.737 1.514,0.104 1.983,-0.22c0.469,-0.32 -1.131,-0.122 -1.269,-0.372c-0.134,-0.249 1.206,-0.688 1.682,-0.886c0.473,-0.193 2.151,0.637 3.346,0.696c1.194,0.06 0.558,2.003 0.558,2.003Z" style="fill:#ffb27d;fill-rule:nonzero;"/><path d="M1452.25,261.004c0,0 -3.178,5.731 -8.172,7.555c-4.994,1.823 -12.255,5.028 -14.596,5.567c-2.34,0.54 -16.556,-0.662 -16.556,-0.662c-0,-0 -0.343,-0.369 -0.265,-1.377c0.079,-0.971 0.663,-1.485 0.663,-1.485c-0,-0 9.17,-1.79 13.557,-2.136c1.824,-0.142 12.285,-9.985 13.215,-14.733c0.368,-1.868 12.154,7.271 12.154,7.271Z" style="fill:#ff9e55;fill-rule:nonzero;"/><path d="M1405.27,323.733c0,-0 0.432,4.998 -0.625,5.519l-13.524,-0.03c0,-0 0,-1.559 2.174,-1.905c2.169,-0.347 5.987,-1.619 6.631,-4.451c0.648,-2.832 5.344,0.867 5.344,0.867Z" style="fill:#163560;fill-rule:nonzero;"/><path d="M1397.99,270.408l6.14,0c1.593,0 3.015,0.998 3.551,2.494l1.775,4.942c0.361,0.997 0.282,2.099 -0.212,3.037l-1.02,1.931c-2.445,4.629 -7.104,7.67 -12.325,8.046l-7.492,0.536l5.999,-18.384c0.506,-1.552 1.954,-2.602 3.584,-2.602Z" style="fill:#163560;fill-rule:nonzero;"/></g><rect x="581.904" y="287.739" width="4.478" height="78.857" style="fill:#ff9e55;fill-rule:nonzero;"/><path d="M573.447,291.405l11.138,-0c1.817,-0 3.29,-1.474 3.29,-3.29c-0,-1.816 -1.473,-3.29 -3.29,-3.29l-11.138,0c-1.817,0 -3.29,1.474 -3.29,3.29c-0,1.816 1.473,3.29 3.29,3.29Z" style="fill:#004794;fill-rule:nonzero;"/><path d="M586.382,327.168c0.543,0.048 24.155,14.007 24.155,14.007l-0,20.371l-24.562,0l0.407,-34.378Z" style="fill:#ff9e55;fill-rule:nonzero;"/><path d="M724.031,367.556c-0,-3.684 -2.989,-6.672 -6.673,-6.672c-3.684,-0 -6.673,2.988 -6.673,6.672c0,3.685 2.989,6.673 6.673,6.673c3.684,-0 6.673,-2.988 6.673,-6.673Z" style="fill:#004794;fill-rule:nonzero;"/><path d="M721.537,367.556c0,-2.307 -1.872,-4.179 -4.179,-4.179c-2.307,0 -4.179,1.872 -4.179,4.179c-0,2.308 1.872,4.18 4.179,4.18c2.307,-0 4.179,-1.872 4.179,-4.18Z" style="fill:#183e7a;fill-rule:nonzero;"/><rect x="581.904" y="360.597" width="144.929" height="5.999" style="fill:#ff9e55;fill-rule:nonzero;"/><path d="M597.015,363.597c-0,-5.873 -4.761,-10.632 -10.633,-10.632c-5.872,-0 -10.632,4.759 -10.632,10.632c-0,5.872 4.76,10.632 10.632,10.632c5.872,-0 10.633,-4.76 10.633,-10.632Z" style="fill:#004794;fill-rule:nonzero;"/><path d="M593.042,363.597c0,-3.677 -2.981,-6.658 -6.66,-6.658c-3.678,0 -6.66,2.981 -6.66,6.658c0,3.68 2.982,6.661 6.66,6.661c3.679,0 6.66,-2.981 6.66,-6.661Z" style="fill:#183e7a;fill-rule:nonzero;"/><path d="M576.833,281.026c0,-0 5.123,2.035 5.394,2.984c0.272,0.949 0.272,4.615 -1.085,4.615c-1.357,-0 -2.782,-3.122 -3.393,-3.189c-0.611,-0.067 -2.307,-0.477 -2.511,-1.221c-0.203,-0.748 1.595,-3.189 1.595,-3.189Z" style="fill:#ffb27d;fill-rule:nonzero;"/><path d="M576.992,282.511c0.732,-1.541 0.016,-2.125 0.016,-2.125c-0,-0 -14.958,-9.248 -16.157,-10.216c-1.2,-0.967 -8.121,-17.744 -8.121,-17.744c-0,0 -2.499,-6.825 -6.612,-7.148c-3.574,-0.283 -5.8,1.715 -7.157,3.922c-1.617,2.627 -1.432,5.984 0.426,8.448c4.171,5.53 12.564,16.493 14.857,18.272c5.102,3.956 21.208,8.488 21.208,8.488c-0,0 0.964,-0.684 1.54,-1.897Z" style="fill:#1f437c;fill-rule:nonzero;"/><path d="M546.99,373.094l-14.337,-0c-0.138,-0.026 -0.242,-0.056 -0.305,-0.089c-0.957,-0.481 -0.657,-4.142 -0.542,-5.277c0.022,-0.209 0.038,-0.332 0.038,-0.332c-0,0 5.041,-4.034 5.735,-0.945c0.022,0.097 0.047,0.19 0.074,0.283l0,0.004c0.875,2.888 4.788,4.201 7.048,4.566c1.726,0.279 2.174,1.287 2.289,1.79Z" style="fill:#2c3a64;fill-rule:nonzero;"/><path d="M537.895,239.867c-0,-0 3.411,5.563 9.018,4.302c0,-0 1.557,-2.583 1.88,-4.611c0.04,-0.25 0.08,-0.491 0.119,-0.722c0.374,-2.281 0.646,-3.554 0.646,-3.554c-0,-0 -0.002,-0 -0.005,-0.004c-0.226,-0.134 -7.591,-4.551 -7.625,-4.28c-0.802,6.204 -4.033,8.869 -4.033,8.869Z" style="fill:#ffb27d;fill-rule:nonzero;"/><path d="M542.493,232.591c0.545,1.519 2.727,4.659 6.419,6.245c0.374,-2.281 0.646,-3.554 0.646,-3.554c-0,-0 -0.002,-0 -0.005,-0.004c-0.209,-0.089 -7.222,-3.133 -7.06,-2.687Z" style="fill:#ed975d;fill-rule:nonzero;"/><path d="M551.239,235.293c-0,0 -9.147,0.737 -9.519,-4.964c-0.372,-5.705 -1.803,-9.449 4.021,-10.164c5.824,-0.71 7.102,1.392 7.689,3.264c0.587,1.876 0.178,11.525 -2.191,11.864Z" style="fill:#ffb27d;fill-rule:nonzero;"/><path d="M541.794,231.877c-0.132,0.059 -2.121,0.357 -4.633,-7.358c-0.395,-1.213 -0.411,-3.706 1.232,-5.656c1.643,-1.954 6.569,-2.936 10.56,-3.085c3.991,-0.149 4.592,2.177 5.173,4.51c0.61,2.449 3.092,4.764 3.092,4.764c-3.628,1.362 -7.253,-1.924 -8.715,-1.694c-1.463,0.227 -2.289,2.352 -2.501,3.041c-0.211,0.692 -0.461,1.254 -2.121,0.357c-1.66,-0.897 -1.17,2.367 -0.98,3.007c0,-0 -0.002,1.623 -1.107,2.114Z" style="fill:#004794;fill-rule:nonzero;"/><path d="M509.336,373.094l-5.409,-0c-1.134,-0 -2.393,-1.135 -2.709,-3.215c-0.315,-2.081 -2.646,-3.212 -3.151,-4.913c-0.504,-1.704 2.08,-4.097 2.08,-4.097l0.432,-0.555l0.45,-0.58l4.284,1.008c0,0 0.106,1.02 0.172,2.319c0.046,0.938 0.071,2.024 0.018,2.973c-0.127,2.27 0.635,4.712 2.651,5.154c2.016,0.443 1.182,1.906 1.182,1.906Z" style="fill:#2c3a64;fill-rule:nonzero;"/><path d="M544.1,290.415c0,-0 -0.765,9.553 -1.665,21.033c-1.223,15.601 -2.694,34.762 -2.84,38.391c-0.251,6.304 -1.261,16.385 -1.261,16.385c0,0 -2.393,2.397 -7.183,1.384c-0,0 -4.27,-14.39 -5.489,-29.618c-0.019,-0.25 -0.038,-0.503 -0.057,-0.752c-1.134,-15.504 -2.898,-48.148 -2.898,-48.148l21.393,1.325Z" style="fill:#ff9e55;fill-rule:nonzero;"/><path d="M540.235,292.302c0,-0 1.508,3.438 -1.249,14.621c-2.022,8.206 -13.324,31.067 -13.324,31.067c-0.019,-0.25 -0.038,-0.503 -0.057,-0.752c-1.134,-15.504 -2.898,-48.148 -2.898,-48.148l17.528,3.212Z" style="fill:#f5821f;fill-rule:nonzero;"/><path d="M541.248,289.778c-0,0 -14.445,36.366 -23.519,52.625c-9.075,16.259 -11.911,20.796 -11.911,20.796c0,-0 -5.199,-2.081 -5.671,-3.499c-0,0 3.47,-31.386 9.546,-39.037c3.435,-4.325 7.468,-17.298 7.657,-21.838c0.189,-4.536 1.229,-13.516 1.229,-13.516l22.669,4.469Z" style="fill:#ff9e55;fill-rule:nonzero;"/><path d="M541.983,291.423c-1.949,-0.55 -21.818,-8.339 -21.431,-9.463c1.347,-3.919 2.738,-10.536 4.401,-18.581c0.313,-1.496 0.662,-2.97 1.043,-4.414c0.995,-3.759 2.212,-7.287 3.596,-10.375c2.571,-5.739 6.747,-9.631 10.086,-10.96c0.434,-0.164 1.347,1.21 3.134,2.78c1.652,1.451 3.368,1.422 5.266,1.544l1.531,2.713c1.241,2.356 2.299,5.657 2.437,8.344c0,-0 -9.889,38.457 -10.063,38.412Z" style="fill:#004794;fill-rule:nonzero;"/><path d="M552.046,253.011l-5.945,-0.64l-14.72,17.855c-2.114,2.564 -5.602,3.543 -8.739,2.445l-4.063,12.638l24.976,8.064l8.491,-40.362Z" style="fill:#ff9e55;fill-rule:nonzero;"/><path d="M542.473,244.448c-0.865,-1.638 -3.83,-6.338 -3.83,-6.338l1.035,-0.48c0.588,0.074 3.718,4.745 4.692,6.498c1.172,2.11 4.168,8.708 4.168,8.708l-2.437,-0.465c0,-0 -2.609,-5.999 -3.628,-7.923Z" style="fill:#f5821f;fill-rule:nonzero;"/><path d="M570.472,282.909c-0,-0 5.122,2.035 5.393,2.984c0.272,0.953 0.272,4.615 -1.085,4.615c-1.357,-0 -2.782,-3.122 -3.393,-3.189c-0.611,-0.067 -2.307,-0.473 -2.51,-1.221c-0.204,-0.748 1.595,-3.189 1.595,-3.189Z" style="fill:#ffb27d;fill-rule:nonzero;"/><path d="M570.456,285.034c0.732,-1.541 0.016,-2.125 0.016,-2.125c-0,-0 -14.957,-9.244 -16.157,-10.216c-1.2,-0.967 -8.121,-17.743 -8.121,-17.743c0,-0 -2.499,-6.822 -6.611,-7.149c-3.574,-0.283 -5.801,1.715 -7.158,3.922c-1.617,2.627 -1.431,5.984 0.427,8.448c4.171,5.53 12.564,16.493 14.856,18.272c5.103,3.956 21.208,8.489 21.208,8.489c0,-0 0.965,-0.685 1.54,-1.898Z" style="fill:#004794;fill-rule:nonzero;"/><rect x="652.572" y="311.277" width="60.607" height="49.975" style="fill:#699dee;fill-rule:nonzero;"/><rect x="622.269" y="311.277" width="60.606" height="49.975" style="fill:#80b4ff;fill-rule:nonzero;"/><path d="M713.142,348.581l-9.602,-0l0.845,-2.706l-0.845,-1.927l9.602,-0l-0,4.633Z" style="fill:#9dc3f3;fill-rule:nonzero;"/><path d="M682.875,326.743l-9.604,0l0.846,-2.701l-0.846,-1.932l9.604,0l0,4.633Z" style="fill:#e3f0ff;fill-rule:nonzero;"/><path d="M682.875,322.11l9.605,0l-0.848,2.702l0.848,1.931l-9.605,0l0,-4.633Z" style="fill:#9dc3f3;fill-rule:nonzero;"/><path d="M622.267,349.117l9.604,-0l-0.846,2.701l0.846,1.932l-9.604,-0l0,-4.633Z" style="fill:#e3f0ff;fill-rule:nonzero;"/><rect x="626.237" y="314.667" width="17.441" height="6.784" style="fill:#fff;fill-rule:nonzero;"/><rect x="652.572" y="281.856" width="36.307" height="29.939" style="fill:#f5821f;fill-rule:nonzero;"/><rect x="670.725" y="281.856" width="36.309" height="29.939" style="fill:#ff9e55;fill-rule:nonzero;"/><path d="M652.593,304.203l5.753,-0l-0.507,-1.619l0.507,-1.157l-5.753,-0l0,2.776Z" style="fill:#dd732c;fill-rule:nonzero;"/><path d="M670.725,291.122l5.754,-0l-0.507,-1.619l0.507,-1.157l-5.754,-0l0,2.776Z" style="fill:#ffb27d;fill-rule:nonzero;"/><path d="M670.725,288.346l-5.753,-0l0.507,1.619l-0.507,1.157l5.753,-0l0,-2.776Z" style="fill:#dd732c;fill-rule:nonzero;"/><path d="M707.035,304.523l-5.754,-0l0.507,1.619l-0.507,1.157l5.754,-0l-0,-2.776Z" style="fill:#ffb27d;fill-rule:nonzero;"/><rect x="694.207" y="283.887" width="10.45" height="4.064" style="fill:#fff;fill-rule:nonzero;"/><path d="M456.035,92.619l-20.607,-0l-0,-4.089l9.724,-10.364c0.731,-0.8 1.346,-1.531 1.85,-2.188c0.501,-0.661 0.908,-1.269 1.217,-1.817c0.308,-0.553 0.531,-1.067 0.662,-1.541c0.131,-0.474 0.195,-0.933 0.195,-1.372c-0,-1.333 -0.339,-2.385 -1.013,-3.151c-0.674,-0.76 -1.637,-1.145 -2.891,-1.145c-0.701,-0 -1.323,0.128 -1.866,0.385c-0.546,0.252 -1,0.603 -1.363,1.052c-0.365,0.444 -0.644,0.977 -0.837,1.6c-0.193,0.617 -0.289,1.293 -0.289,2.024l-5.989,0c-0,-1.348 0.242,-2.622 0.723,-3.822c0.481,-1.195 1.178,-2.241 2.086,-3.14c0.909,-0.894 2.005,-1.6 3.294,-2.123c1.286,-0.524 2.735,-0.785 4.345,-0.785c1.583,-0 2.985,0.197 4.202,0.587c1.22,0.395 2.242,0.953 3.066,1.684c0.828,0.731 1.452,1.624 1.879,2.681c0.428,1.062 0.64,2.252 0.64,3.575c-0,1.003 -0.158,1.975 -0.474,2.913c-0.316,0.934 -0.763,1.872 -1.344,2.805c-0.577,0.938 -1.276,1.881 -2.093,2.839c-0.82,0.958 -1.733,1.95 -2.738,2.983l-5.306,5.599l12.927,0l0,4.81Z" style="fill:#fff;fill-rule:nonzero;"/><path d="M792.416,74.946l3.181,0c1.511,0 2.631,-0.38 3.365,-1.136c0.729,-0.76 1.094,-1.762 1.094,-3.017c-0,-0.548 -0.082,-1.061 -0.25,-1.54c-0.163,-0.474 -0.416,-0.879 -0.751,-1.215c-0.339,-0.34 -0.763,-0.602 -1.273,-0.795c-0.506,-0.193 -1.105,-0.291 -1.794,-0.291c-0.551,-0 -1.072,0.079 -1.559,0.237c-0.491,0.158 -0.916,0.385 -1.28,0.671c-0.365,0.292 -0.655,0.647 -0.867,1.067c-0.213,0.42 -0.32,0.889 -0.32,1.412l-5.97,0c0,-1.239 0.261,-2.365 0.774,-3.377c0.518,-1.012 1.221,-1.872 2.107,-2.578c0.889,-0.711 1.931,-1.259 3.129,-1.654c1.199,-0.39 2.479,-0.587 3.841,-0.587c1.515,-0 2.892,0.182 4.138,0.547c1.247,0.366 2.319,0.909 3.212,1.63c0.897,0.721 1.589,1.62 2.088,2.686c0.494,1.067 0.74,2.301 0.74,3.704c0,0.647 -0.097,1.288 -0.298,1.92c-0.201,0.632 -0.495,1.23 -0.889,1.788c-0.391,0.558 -0.867,1.071 -1.433,1.545c-0.565,0.479 -1.213,0.879 -1.942,1.21c1.693,0.607 2.954,1.516 3.792,2.726c0.83,1.21 1.246,2.642 1.246,4.296c0,1.402 -0.271,2.656 -0.815,3.757c-0.543,1.101 -1.291,2.025 -2.24,2.775c-0.953,0.751 -2.076,1.324 -3.379,1.714c-1.299,0.395 -2.705,0.592 -4.22,0.592c-1.28,0 -2.534,-0.173 -3.759,-0.518c-1.224,-0.346 -2.314,-0.874 -3.275,-1.59c-0.952,-0.716 -1.723,-1.615 -2.307,-2.696c-0.588,-1.076 -0.882,-2.36 -0.882,-3.847l5.969,0c0,0.563 0.112,1.077 0.332,1.546c0.219,0.469 0.524,0.869 0.919,1.21c0.391,0.335 0.856,0.602 1.392,0.795c0.535,0.192 1.123,0.286 1.756,0.286c0.7,-0 1.332,-0.094 1.898,-0.286c0.566,-0.193 1.042,-0.475 1.437,-0.84c0.39,-0.36 0.688,-0.795 0.896,-1.298c0.209,-0.504 0.313,-1.062 0.313,-1.684c-0,-0.795 -0.115,-1.481 -0.342,-2.055c-0.227,-0.572 -0.555,-1.036 -0.983,-1.392c-0.428,-0.36 -0.945,-0.622 -1.555,-0.795c-0.614,-0.173 -1.299,-0.257 -2.055,-0.257l-3.181,0l-0,-4.666Z" style="fill:#fff;fill-rule:nonzero;"/><g><path d="M1040.23,329.23c-0.079,-0.538 0.296,-1.043 0.839,-1.122l36.967,-5.408c0.537,-0.08 1.042,0.296 1.121,0.838l0.559,3.84l-38.923,5.692l-0.563,-3.84Z" style="fill:#13375b;fill-rule:nonzero;"/><path d="M1055.98,327.111c-0.3,-2.064 1.131,-3.982 3.195,-4.286c2.064,-0.301 3.982,1.126 4.286,3.194c0.301,2.064 -1.13,3.982 -3.194,4.282c-2.064,0.305 -3.982,-1.125 -4.287,-3.19Zm-2.089,0.305c0.472,3.219 3.461,5.45 6.681,4.979c3.223,-0.471 5.45,-3.465 4.979,-6.685c-0.472,-3.219 -3.462,-5.446 -6.685,-4.975c-3.219,0.468 -5.446,3.462 -4.975,6.681Z" style="fill:#13375b;fill-rule:nonzero;"/><path d="M1040.7,328.241c-0.329,0.201 -0.525,0.584 -0.467,0.989l0.563,3.84l38.923,-5.692c0.392,2.661 -1.451,5.138 -4.111,5.526l-29.286,4.282c-2.661,0.392 -5.134,-1.451 -5.526,-4.116l-0.563,-3.84c-0.058,-0.405 0.138,-0.788 0.467,-0.989Z" style="fill:#355389;fill-rule:nonzero;"/><path d="M1054.33,415.253l100.605,-0c-0.291,-6.368 -0.788,-11.831 -1.597,-16.067c-5.775,-30.4 -30.045,-67.133 -30.045,-67.133l-86.669,-11.401l14.387,84.864l3.319,9.737Z" style="fill:#699dee;fill-rule:nonzero;"/><path d="M1076.31,415.253l-23.114,-80.39l-20.487,7.752c-0,0 -7.098,40.525 -4.358,72.638l47.959,-0Z" style="fill:#004794;fill-rule:nonzero;"/><path d="M922.097,255.842c-1.288,-2.74 12.289,-6.464 12.727,-9.416c0.434,-2.948 -17.764,-1.284 -18.678,-3.74c-1.68,-4.529 19.821,-3.049 19.178,-5.18c-0.637,-2.13 -22.738,-4.749 -20.791,-8.723c1.947,-3.974 22.631,5.108 22.96,2.514c0.329,-2.593 -19.996,-6.713 -20.216,-12.301c-0.121,-2.986 33.839,11.442 37.396,9.445c3.562,-2.002 -5.621,-15.141 -2.869,-17.518c2.753,-2.377 14.67,25.107 16.822,25.908c2.144,0.801 51.616,15.254 67.462,17.593c1.339,-5.367 10.388,-35.257 11.535,-40.32c9.303,5.267 21.158,-1.071 30.682,3.624c-4.795,16.901 -15.558,72.579 -19.857,75.089c-13.098,7.631 -82.003,-28.764 -93.391,-35.207c-11.401,-6.447 -17.222,-3.369 -24.649,-5.012c-7.427,-1.639 -17.026,5.979 -18.311,3.244Z" style="fill:#ffb27d;fill-rule:nonzero;"/><path d="M1044.7,91.823c-3.466,-15.754 -6.864,-31.608 2.276,-48.914c7.394,-14.011 20.175,-22.067 34.97,-23.823c41.917,-4.975 32.956,34.157 91.544,42.63c18.206,2.631 35.116,5.162 50.315,14.216c27.447,16.346 37.806,42.571 19.603,85.297c-44.568,104.613 -151.208,13.707 -167.475,-4.796c-16.142,-18.364 -29.002,-54.464 -31.233,-64.61Z" style="fill:#0e2e35;fill-rule:nonzero;"/><path d="M1110.68,141.555c0,-0 21.163,2.402 33.823,16.175c12.66,13.77 -20.462,124.466 -22.764,141.997c-2.302,17.527 22.013,66.036 22.013,66.036c0,0 -82.653,16.43 -104.137,2.239c0,0 -1.889,-135.47 0.413,-147.989c2.302,-12.522 21.488,-63.434 26.092,-68.442c4.603,-5.008 44.56,-10.016 44.56,-10.016Z" style="fill:#f5821f;fill-rule:nonzero;"/><path d="M1100.02,98.879c-0,0 0.167,0.942 0.463,2.544c1.426,7.677 6.922,33.147 10.633,40.148c4.483,8.466 -15.358,35.454 -34.456,32.16c-5.684,-0.98 4.808,-24.799 4.303,-27.322c-0.967,-4.829 -2.273,-11.418 -3.615,-18.173c-0.755,-3.812 -1.518,-7.673 -2.24,-11.305c-2.039,-10.321 -3.707,-18.761 -3.707,-18.761l28.619,0.709Z" style="fill:#ffb27d;fill-rule:nonzero;"/><path d="M1076.17,122.269c-0.358,-1.81 -0.713,-3.603 -1.059,-5.338c-2.039,-10.321 -3.707,-18.761 -3.707,-18.761c0,0 1.668,8.44 3.707,18.761c0.346,1.735 0.701,3.528 1.059,5.338Zm24.374,-20.538c-0.021,-0.108 -0.042,-0.208 -0.058,-0.308c-0.259,-1.385 -0.417,-2.273 -0.455,-2.49c0.038,0.217 0.196,1.105 0.455,2.49c0.016,0.1 0.037,0.2 0.058,0.308Z" style="fill:#815147;fill-rule:nonzero;"/><path d="M1077.34,128.173c-0.388,-1.968 -0.78,-3.949 -1.168,-5.904c-0.358,-1.81 -0.713,-3.603 -1.059,-5.338c-2.039,-10.321 -3.707,-18.761 -3.707,-18.761l28.619,0.709c-0,0 0.004,0.021 0.008,0.054c0.038,0.217 0.196,1.105 0.455,2.49c0.016,0.1 0.037,0.2 0.058,0.308c0.213,1.143 0.488,2.59 0.809,4.241c-1.997,5.659 -5.304,10.955 -10.35,15.362c-4.629,4.045 -9.245,6.189 -13.665,6.839Z" style="fill:#ed9b62;fill-rule:nonzero;"/><path d="M1082.81,30.862c0,0 11.668,1.622 20.125,12.535c8.456,10.913 17.568,44.665 -3.437,63.013c-21.004,18.348 -41.754,-2.423 -44.831,-24.444c-3.078,-22.022 -2.456,-51.896 28.143,-51.104Z" style="fill:#ffb27d;fill-rule:nonzero;"/><path d="M1048.54,76.528c1.326,5.312 4.804,8.899 7.769,8.01c2.969,-0.884 4.299,-5.904 2.973,-11.213c-1.326,-5.308 -4.804,-8.894 -7.769,-8.01c-2.965,0.884 -4.295,5.904 -2.973,11.213Z" style="fill:#ffb27d;fill-rule:nonzero;"/><path d="M1069.85,30.962c-0,0 27.43,31.488 40.319,32.968c12.894,1.485 14.587,18.54 14.587,18.54c-0,0 -4.612,-39.298 -17.372,-46.875c-12.765,-7.581 -37.534,-4.633 -37.534,-4.633Z" style="fill:#0e2e35;fill-rule:nonzero;"/><path d="M1105.95,71.578c-1.046,5.7 1.06,10.925 4.713,11.676c3.648,0.746 7.455,-3.265 8.502,-8.965c1.051,-5.701 -1.059,-10.93 -4.708,-11.676c-3.649,-0.747 -7.456,3.265 -8.507,8.965Z" style="fill:#ffb27d;fill-rule:nonzero;"/><path d="M1106.34,231.393l-88.629,12.965c-2.664,0.388 -4.508,2.865 -4.116,5.529l17.298,118.241c0.387,2.664 2.864,4.507 5.529,4.115l88.629,-12.964c2.665,-0.388 4.508,-2.865 4.116,-5.53l-17.297,-118.24c-0.388,-2.665 -2.865,-4.508 -5.53,-4.116Z" style="fill:#163560;fill-rule:nonzero;"/><path d="M1067.8,92.874l19.945,-0.104c0,0 -0.421,7.577 -9.19,7.877c-10.692,0.367 -10.755,-7.773 -10.755,-7.773Z" style="fill:#fff;fill-rule:nonzero;"/><path d="M1168.52,261.626l-32.113,3.282c0,-0 0.526,27.255 -0.029,30.39c-0,0 -54.911,15.221 -77.862,19.349c-0,0 -10.45,-5.921 -14.679,-7.806c-4.228,-1.881 -15.591,-3.936 -18.106,-4.266c-2.51,-0.329 -1.655,2.427 0.505,3.386c2.16,0.963 7.743,3.595 9.324,6.814c-0,-0 -4.533,0.496 -6.931,-0.571c-2.398,-1.068 -5.7,-3.332 -5.754,-4.504c-0.055,-1.176 -0.597,-4.003 -1.385,-3.849c-0.2,0.038 -0.467,0.968 -0.738,1.939c-0.254,0.922 -0.525,1.868 -0.75,2.798c-0.405,1.672 -0.868,4.112 -1.047,5.209c-0.413,2.506 1.117,9.407 1.334,11.859c0.392,4.479 1.672,6.468 4.033,7.606c3.811,1.33 7.843,2.177 13.802,2.794c10.926,1.126 20.967,-2.018 25.346,-2.51c4.378,-0.492 74.305,-7.427 74.305,-7.427c-0,-0 27.797,-3.999 29.64,-8.782c1.847,-4.787 1.105,-55.711 1.105,-55.711Z" style="fill:#ffb27d;fill-rule:nonzero;"/><path d="M1140.62,153.727c-0,0 10.137,4.804 19.044,25.562c8.47,19.728 10.955,118.17 10.955,118.17l-33.589,-5.601l-17.072,-45.899c-12.168,-27.472 -9.024,-59.456 8.702,-83.717c4.729,-6.467 9.083,-10.379 11.96,-8.515Z" style="fill:#f2780e;fill-rule:nonzero;"/></g><path d="M1106.79,81.125c0,-0 -5.301,9.146 -16.526,11.641l-0,1.172c-0,0 10.23,-0.577 18.168,-12.373l-1.642,-0.44Z" style="fill:#163560;"/><path d="M1074.82,36.436c4.983,-1.841 19.753,0.276 29.983,24.235c-0,-0 5.025,-1.423 4.597,-2.596c-4.284,-11.727 -18.274,-32.631 -38.285,-25.675c-0,-0 3.676,4.047 3.705,4.036Z" style="fill:#356dbb;"/><path d="M1092.88,91.899c-0.094,-0.701 -0.74,-1.194 -1.441,-1.1l-8.928,1.196c-0.702,0.094 -1.195,0.74 -1.101,1.441l0.341,2.541c0.094,0.701 0.74,1.194 1.441,1.1l8.928,-1.196c0.701,-0.094 1.194,-0.74 1.1,-1.441l-0.34,-2.541Z" style="fill:#0e2e35;"/><ellipse cx="1108.84" cy="69.657" rx="7.485" ry="12.814" style="fill:#152c4d;"/><ellipse cx="1110.85" cy="69.657" rx="6.192" ry="10.15" style="fill:#356dbb;"/></svg>