<?xml version="1.0" encoding="UTF-8" standalone="no"?><!DOCTYPE svg PUBLIC "-//W3C//DTD SVG 1.1//EN" "http://www.w3.org/Graphics/SVG/1.1/DTD/svg11.dtd"><svg width="100%" height="100%" viewBox="0 0 1920 570" version="1.1" xmlns="http://www.w3.org/2000/svg" xmlns:xlink="http://www.w3.org/1999/xlink" xml:space="preserve" xmlns:serif="http://www.serif.com/" style="fill-rule:evenodd;clip-rule:evenodd;stroke-linejoin:round;stroke-miterlimit:2;"><rect x="0" y="0" width="1920" height="569.476" style="fill:#ebf3fa;fill-rule:nonzero;"/><rect x="239.879" y="0" width="705.567" height="518.419" style="fill:none;fill-rule:nonzero;"/><clipPath id="_clip1"><rect x="239.879" y="0" width="705.567" height="518.419" clip-rule="nonzero"/></clipPath><g clip-path="url(#_clip1)"><g><path d="M647.72,298.51c-11.62,-4.71 -52.865,-107.52 -100.699,-128.157c0,-0 -19.241,-10.117 -40.679,12.279c-21.043,22.379 94.539,153.717 117.95,163.26c34.944,14.252 157.833,-38.487 186.55,-48.429l-5.79,-20.796c0,0 -147.037,26.009 -157.332,21.843Z" style="fill:#ffb27d;fill-rule:nonzero;"/><path d="M594.19,198.985c-0,0 48.28,70.253 54.87,81.891c0,0 -48.22,38.77 -59.154,51.853c0,0 -26.636,-60.239 -27.012,-63.366c-0.376,-3.127 31.296,-70.378 31.296,-70.378Z" style="fill:#466eb6;fill-rule:nonzero;"/><path d="M577.432,465.795c0,0 10.089,45.48 10.171,46.163c8.953,74.455 41.16,218.132 40.044,232.463c-2.723,34.963 -55.266,217.98 -55.266,217.98l-40.291,0.009l26.681,-214.759l-29.139,-81.648l-46.902,-162.679l94.702,-37.529Z" style="fill:#50bfa5;fill-rule:nonzero;"/><path d="M444.946,468.386l1.792,98.679l1.198,181.989l-56.552,184.811c-0,0 13.993,24.222 30.539,25.869l101.926,-195.02l41.446,-283.479l-1.247,-7.166l-119.102,-5.683Z" style="fill:#f5821f;fill-rule:nonzero;"/><path d="M582.159,479.103l-19.34,-80.118c-0,-0 47.627,-126.423 39.334,-187.339c-3.823,-26.984 -32.953,-37.843 -36.643,-38.185c-18.431,-1.7 -63.005,-16.881 -90.55,7.334c-32.378,29.012 -60.597,114.787 -33.533,311.087c0,0 104.093,3.882 140.732,-12.779Z" style="fill:#5184ce;fill-rule:nonzero;"/><path d="M557.303,361.936c-2.352,-12.312 5.098,-162.61 -43.132,-182.302c-0,0 -19.437,-9.731 -40.429,13.087c-20.598,22.79 7.815,154.206 32.768,181.403c10.704,36.67 34.754,127.993 57.96,166.152l33.629,-0.197c-18.669,-64.227 -32.034,-132.284 -40.796,-178.143Z" style="fill:#ffb27d;fill-rule:nonzero;"/><path d="M562.063,313.873c-4.655,-48.417 -15.661,-121.076 -47.892,-134.239c-0,0 -19.437,-9.731 -40.429,13.087c-11.987,13.261 -11.524,91.465 6.176,150.641c18.884,-13.678 58.434,-26.907 82.145,-29.489Z" style="fill:#466eb6;fill-rule:nonzero;"/><path d="M576.329,518.419c0,0 24.142,8.686 27.389,13.954c3.247,5.266 7.346,13.109 7.281,15.76c-0.058,2.428 -13.742,26.328 -18.594,25.221c-2.947,-0.676 8.086,-20.431 8.086,-20.431c-0,0 -10.726,21.408 -14.906,17.364c-2.314,-2.248 9.289,-22.468 9.289,-22.468c-0,-0 -9.39,17.083 -10.522,16.48c-3.089,-1.63 -1.802,-9.375 0.196,-17.512c1.244,-5.021 -8.305,-16.23 -8.305,-16.23l0.086,-12.138Z" style="fill:#f7a491;fill-rule:nonzero;"/><path d="M548.329,19.513c0,0 -19.379,-16.065 -30.559,7.657c-0,0 -11.376,-4.7 -17.572,6.855c-0,-0 -19.951,-3.481 -21.163,25.87c-0,0 -10.132,-0.678 -10.026,11.252c0.109,11.942 7.035,19.077 7.035,19.077c0,-0 -5.064,4.834 -1.234,15.357c3.257,8.949 11.042,9.439 11.042,9.439c0,-0 3.922,15.265 11.215,19.131c7.291,3.865 16.182,0.523 16.182,0.523c-0,0 3.442,8.121 11.203,6.423c7.761,-1.687 16.583,-10.332 25.773,-8.028c9.192,2.305 31.571,-3.982 31.571,-3.982c0,0 24.239,-14.487 13.428,-39.732c-0,0 11.999,-13.769 -1.532,-26.939c-0,0 5.857,-23.839 -12.773,-35.253c-18.63,-11.414 -32.59,-7.65 -32.59,-7.65Z" style="fill:#07345a;fill-rule:nonzero;"/><path d="M560.226,142.975l5.89,22.715c0,0 10.975,32.437 2.775,39.933c-8.2,7.496 -43.041,-36.052 -43.041,-36.052l-3.956,-58.896l38.332,32.3Z" style="fill:#ffb27d;fill-rule:nonzero;"/><path d="M523.18,129.76c9.81,19.073 28.939,29.223 42.04,32.473l-4.994,-19.258l-38.332,-32.3l1.286,19.085Z" style="fill:#ed9b62;fill-rule:nonzero;"/><path d="M535.235,46.696c17.454,-8.457 38.316,1.304 43.352,19.738c2.189,8.013 4.515,18.139 6.067,29.329c3.734,26.921 -7.073,54.858 -19.323,56.331c-12.25,1.473 -48.206,-11.924 -54.035,-50.074c-3.6,-23.549 5.622,-46.449 23.939,-55.324Z" style="fill:#ffb27d;fill-rule:nonzero;"/><path d="M520.686,103.971c0.715,5.948 -2.65,11.24 -7.516,11.825c-4.866,0.585 -9.39,-3.759 -10.106,-9.706c-0.716,-5.959 2.649,-11.251 7.516,-11.836c4.865,-0.586 9.39,3.758 10.106,9.717Z" style="fill:#ffb27d;fill-rule:nonzero;"/><path d="M586.691,26.891c13.859,8.503 20.124,23.201 13.994,32.825c-6.129,9.633 -22.332,10.548 -36.192,2.037c-13.858,-8.498 -20.123,-23.195 -13.994,-32.823c6.13,-9.628 22.333,-10.54 36.192,-2.039Z" style="fill:#07345a;fill-rule:nonzero;"/><path d="M554.597,39.089c0.524,4.356 -4.311,8.52 -10.799,9.3c-6.488,0.78 -12.173,-2.118 -12.696,-6.475c-0.524,-4.356 4.311,-8.52 10.799,-9.3c6.488,-0.78 12.172,2.119 12.696,6.475Z" style="fill:#07345a;fill-rule:nonzero;"/><path d="M593.586,68.412c0.673,5.602 -3.271,10.674 -8.81,11.34c-5.539,0.666 -10.574,-3.326 -11.247,-8.928c-0.674,-5.602 3.27,-10.685 8.808,-11.351c5.539,-0.666 10.575,3.337 11.249,8.939Z" style="fill:#07345a;fill-rule:nonzero;"/><path d="M550.987,122.015l26.52,-5.348c-0,-0 1.423,10.368 -10.171,13.064c-14.138,3.281 -16.349,-7.716 -16.349,-7.716Z" style="fill:#fff;fill-rule:nonzero;"/></g></g><g><rect x="1241.83" y="350.721" width="122.96" height="128.073" style="fill:#c3dafc;fill-rule:nonzero;"/><rect x="1303.31" y="350.721" width="122.96" height="128.073" style="fill:#d4e4f8;fill-rule:nonzero;"/><path d="M1241.9,446.314l19.483,-0l-1.716,-6.924l1.716,-4.948l-19.483,-0l0,11.872Z" style="fill:#9dc3f3;fill-rule:nonzero;"/><path d="M1303.31,390.357l19.483,-0l-1.716,-6.927l1.716,-4.948l-19.483,0l0,11.875Z" style="fill:#e3f0ff;fill-rule:nonzero;"/><path d="M1303.31,378.482l-19.483,0l1.716,6.926l-1.716,4.949l19.483,-0l0,-11.875Z" style="fill:#9dc3f3;fill-rule:nonzero;"/><path d="M1426.27,447.688l-19.483,0l1.716,6.928l-1.716,4.954l19.483,-0l0,-11.882Z" style="fill:#e3f0ff;fill-rule:nonzero;"/><rect x="1382.83" y="359.405" width="35.381" height="17.389" style="fill:#fff;fill-rule:nonzero;"/><rect x="1292.15" y="252.978" width="94.006" height="97.914" style="fill:#c3dafc;fill-rule:nonzero;"/><rect x="1245.15" y="252.978" width="93.998" height="97.914" style="fill:#d4e4f8;fill-rule:nonzero;"/><path d="M1386.1,326.06l-14.897,0l1.314,-5.295l-1.314,-3.783l14.897,-0l-0,9.078Z" style="fill:#9dc3f3;fill-rule:nonzero;"/><path d="M1339.15,283.279l-14.89,0l1.307,-5.294l-1.307,-3.783l14.89,0l-0,9.077Z" style="fill:#e3f0ff;fill-rule:nonzero;"/><path d="M1339.15,274.202l14.897,0l-1.314,5.294l1.314,3.783l-14.897,0l-0,-9.077Z" style="fill:#9dc3f3;fill-rule:nonzero;"/><path d="M1245.15,327.111l14.898,-0l-1.315,5.295l1.315,3.783l-14.898,0l0,-9.078Z" style="fill:#e3f0ff;fill-rule:nonzero;"/><rect x="1251.31" y="259.617" width="27.049" height="13.293" style="fill:#fff;fill-rule:nonzero;"/><rect x="1295.67" y="178.765" width="71.244" height="74.213" style="fill:#f5821f;fill-rule:nonzero;"/><rect x="1260.05" y="178.765" width="71.244" height="74.213" style="fill:#ff9e55;fill-rule:nonzero;"/><path d="M1366.88,234.157l-11.29,0l0.993,-4.013l-0.993,-2.868l11.29,0l-0,6.881Z" style="fill:#dd732c;fill-rule:nonzero;"/><path d="M1331.29,201.731l-11.29,0l0.994,-4.012l-0.994,-2.868l11.29,0l0,6.88Z" style="fill:#ffb27d;fill-rule:nonzero;"/><path d="M1331.29,194.851l11.29,0l-0.993,4.013l0.993,2.867l-11.29,0l0,-6.88Z" style="fill:#dd732c;fill-rule:nonzero;"/><path d="M1260.05,234.954l11.289,0l-1,4.013l1,2.867l-11.289,0l-0,-6.88Z" style="fill:#ffb27d;fill-rule:nonzero;"/><rect x="1264.72" y="183.797" width="20.498" height="10.076" style="fill:#fff;fill-rule:nonzero;"/></g><g><path d="M1265.75,108.722c0,-12.764 -10.347,-23.112 -23.111,-23.112l-565.268,0c-12.764,0 -23.111,10.348 -23.111,23.112l-0,352.032c-0,12.764 10.347,23.112 23.111,23.112l565.268,-0c12.764,-0 23.111,-10.348 23.111,-23.112l0,-352.032Z" style="fill:#004794;"/><circle cx="1250.94" cy="236.838" r="6.831" style="fill:#fff;"/><path d="M1257.77,259.09c-0,-1.886 -1.531,-3.416 -3.416,-3.416l-6.83,0c-1.886,0 -3.416,1.53 -3.416,3.416l0,76.963c0,1.885 1.53,3.415 3.416,3.415l6.83,0c1.885,0 3.416,-1.53 3.416,-3.415l-0,-76.963Z" style="fill:#fff;"/></g></svg>