<?xml version="1.0" encoding="UTF-8" standalone="no"?><!DOCTYPE svg PUBLIC "-//W3C//DTD SVG 1.1//EN" "http://www.w3.org/Graphics/SVG/1.1/DTD/svg11.dtd"><svg width="100%" height="100%" viewBox="0 0 713 146" version="1.1" xmlns="http://www.w3.org/2000/svg" xmlns:xlink="http://www.w3.org/1999/xlink" xml:space="preserve" xmlns:serif="http://www.serif.com/" style="fill-rule:evenodd;clip-rule:evenodd;stroke-linejoin:round;stroke-miterlimit:2;"><path d="M123.561,43.681l-43.102,20.539c-5.085,2.423 -11.174,0.265 -13.594,-4.82l-11.567,-24.273c-2.423,-5.084 -0.266,-11.171 4.818,-13.594l43.106,-20.539c5.085,-2.423 11.173,-0.265 13.593,4.82l11.569,24.273c2.42,5.085 0.261,11.171 -4.823,13.594Z" style="fill:#699dee;fill-rule:nonzero;"/><path d="M62.862,46.157l-9.229,27.507l20.505,-15.163l-11.276,-12.344Z" style="fill:#699dee;fill-rule:nonzero;"/><path d="M78.082,35.522l5.453,-2.771c0,0 4.416,-8.543 3.738,-10.476c-0.674,-1.933 -3.69,-5.252 -2.854,-6.261c0.841,-1.008 2.931,-2.498 5.544,-0.774c1.901,1.251 4.149,8.092 5.003,8.207c0.537,0.072 3.716,-1.432 6.02,-2.568c1.515,-0.747 3.317,-0.589 4.682,0.407l0.004,0.003c0.922,0.674 1.249,1.901 0.781,2.943l-0.73,1.621l1.588,0.814c1.184,0.606 1.656,2.053 1.056,3.24l-0.61,1.209l1.03,0.434c1.33,0.557 1.875,2.144 1.176,3.402l-0.567,1.022l0.245,0.175c1.017,0.73 1.313,2.117 0.674,3.196l-0.588,0.992l-14.525,7.377c-1.36,0.691 -2.849,1.097 -4.372,1.192l-5.535,1.75c-0.597,0.188 -1.24,-0.088 -1.515,-0.648l-6.26,-12.809c-0.305,-0.619 -0.052,-1.365 0.562,-1.677Z" style="fill:#fff;fill-rule:nonzero;"/><path d="M26.613,83.698l-6.009,1.844l-4.035,-9.34l-9.118,1.613l-4.162,-6.497l-3.289,2.107l5.567,8.689l8.641,-1.528l4.198,9.717l9.042,-2.775l-0.835,-3.83Z" style="fill:#004794;fill-rule:nonzero;"/><path d="M682.041,72.727l7.633,3.575l7.043,-4.793c0.802,-0.543 1.833,0.144 1.745,1.166l-0.776,8.973l6.379,5.782c0.726,0.658 0.441,1.935 -0.483,2.161l-8.113,1.971l-3.099,8.365c-0.353,0.952 -1.561,1.054 -2.044,0.17l-4.237,-7.756l-8.295,-0.612c-0.945,-0.069 -1.406,-1.283 -0.78,-2.053l5.493,-6.767l-2.026,-8.741c-0.231,-0.996 0.691,-1.847 1.56,-1.441Z" style="fill:#f5821f;fill-rule:nonzero;"/><path d="M712.513,142.198l-4.422,0.114l-0.956,-7.693l-6.485,-0.698l-1.584,-5.631l-2.629,0.871l2.119,7.53l6.145,0.661l0.995,8.005l6.654,-0.173l0.163,-2.986Z" style="fill:#004794;fill-rule:nonzero;"/><path d="M619.816,71.318l13.922,-4.294l-2.827,-14.303l13.543,-4.884l-1.15,-14.032l9.587,-5.456l-2.55,-5.259l-12.817,7.293l1.088,13.295l-14.087,5.087l2.782,14.069l-12.62,3.889l5.129,4.595Z" style="fill:#f5821f;fill-rule:nonzero;"/><path d="M431.656,42.176c32.912,-7.475 63.315,2.856 67.905,23.075c2.298,10.109 -2.293,20.776 -11.573,29.85l20.125,26.776l-33.371,-16.789c-7.608,4.473 -16.585,8.063 -26.459,10.306c-32.912,7.474 -63.319,-2.856 -67.91,-23.074c-4.59,-20.219 18.37,-42.669 51.283,-50.144Z" style="fill:#f3be91;fill-rule:nonzero;"/><path d="M463.355,77.28c-0.477,11.754 -10.386,20.897 -22.137,20.421c-11.756,-0.476 -20.897,-10.389 -20.425,-22.143c0.477,-11.754 10.386,-20.897 22.137,-20.421c11.755,0.475 20.897,10.389 20.425,22.143Z" style="fill:#f5821f;fill-rule:nonzero;"/><path d="M430.559,79.33c-0.251,6.284 4.638,11.585 10.919,11.839c6.285,0.255 11.582,-4.634 11.838,-10.918l-22.757,-0.921Z" style="fill:#efefef;fill-rule:nonzero;"/></svg>