<?xml version="1.0" encoding="UTF-8" standalone="no"?><!DOCTYPE svg PUBLIC "-//W3C//DTD SVG 1.1//EN" "http://www.w3.org/Graphics/SVG/1.1/DTD/svg11.dtd"><svg width="100%" height="100%" viewBox="0 0 1920 572" version="1.1" xmlns="http://www.w3.org/2000/svg" xmlns:xlink="http://www.w3.org/1999/xlink" xml:space="preserve" xmlns:serif="http://www.serif.com/" style="fill-rule:evenodd;clip-rule:evenodd;stroke-linejoin:round;stroke-miterlimit:2;"><rect x="0" y="-0" width="1920" height="571.104" style="fill:#ebf3fa;fill-rule:nonzero;"/><rect x="0" y="485.709" width="1920" height="85.395" style="fill:#c4dbf7;fill-rule:nonzero;"/><rect x="1413.26" y="429.689" width="135.275" height="111.537" style="fill:#c3dafc;fill-rule:nonzero;"/><rect x="241.587" y="429.689" width="135.275" height="111.537" style="fill:#c3dafc;fill-rule:nonzero;"/><rect x="1480.89" y="429.689" width="135.275" height="111.537" style="fill:#d4e4f8;fill-rule:nonzero;"/><rect x="173.95" y="429.689" width="135.275" height="111.537" style="fill:#d4e4f8;fill-rule:nonzero;"/><path d="M1413.34,512.939l21.435,-0l-1.888,-6.03l1.888,-4.309l-21.435,-0l0,10.339Z" style="fill:#9dc3f3;fill-rule:nonzero;"/><path d="M376.782,512.939l-21.435,-0l1.888,-6.03l-1.888,-4.309l21.435,-0l-0,10.339Z" style="fill:#9dc3f3;fill-rule:nonzero;"/><path d="M1480.89,464.207l21.435,-0l-1.888,-6.032l1.888,-4.31l-21.435,0l0,10.342Z" style="fill:#e3f0ff;fill-rule:nonzero;"/><path d="M309.225,464.207l-21.435,-0l1.888,-6.032l-1.888,-4.31l21.435,0l-0,10.342Z" style="fill:#e3f0ff;fill-rule:nonzero;"/><path d="M1480.89,453.865l-21.434,0l1.888,6.032l-1.888,4.31l21.434,-0l0,-10.342Z" style="fill:#9dc3f3;fill-rule:nonzero;"/><path d="M309.225,453.865l21.434,0l-1.888,6.032l1.888,4.31l-21.434,-0l-0,-10.342Z" style="fill:#9dc3f3;fill-rule:nonzero;"/><path d="M1616.17,514.136l-21.434,-0l1.888,6.033l-1.888,4.314l21.434,0l0,-10.347Z" style="fill:#e3f0ff;fill-rule:nonzero;"/><path d="M173.95,514.136l21.434,-0l-1.888,6.033l1.888,4.314l-21.434,0l-0,-10.347Z" style="fill:#e3f0ff;fill-rule:nonzero;"/><rect x="1568.38" y="437.251" width="38.924" height="15.144" style="fill:#fff;fill-rule:nonzero;"/><rect x="182.811" y="437.251" width="38.924" height="15.144" style="fill:#fff;fill-rule:nonzero;"/><rect x="1239.67" y="429.689" width="135.267" height="111.537" style="fill:#c3dafc;fill-rule:nonzero;"/><rect x="415.184" y="429.689" width="135.267" height="111.537" style="fill:#c3dafc;fill-rule:nonzero;"/><rect x="1307.3" y="429.689" width="135.275" height="111.537" style="fill:#d4e4f8;fill-rule:nonzero;"/><rect x="347.546" y="429.689" width="135.275" height="111.537" style="fill:#d4e4f8;fill-rule:nonzero;"/><path d="M1239.74,512.939l21.434,-0l-1.888,-6.03l1.888,-4.309l-21.434,-0l-0,10.339Z" style="fill:#233862;fill-rule:nonzero;"/><path d="M550.378,512.939l-21.434,-0l1.888,-6.03l-1.888,-4.309l21.434,-0l0,10.339Z" style="fill:#233862;fill-rule:nonzero;"/><path d="M1307.3,464.207l21.434,-0l-1.888,-6.032l1.888,-4.31l-21.434,0l-0,10.342Z" style="fill:#004794;fill-rule:nonzero;"/><path d="M482.821,464.207l-21.434,-0l1.888,-6.032l-1.888,-4.31l21.434,0l0,10.342Z" style="fill:#004794;fill-rule:nonzero;"/><path d="M1307.3,453.865l-21.435,0l1.888,6.032l-1.888,4.31l21.435,-0l-0,-10.342Z" style="fill:#233862;fill-rule:nonzero;"/><path d="M482.821,453.865l21.435,0l-1.888,6.032l1.888,4.31l-21.435,-0l0,-10.342Z" style="fill:#233862;fill-rule:nonzero;"/><path d="M1442.57,514.136l-21.435,-0l1.888,6.033l-1.888,4.314l21.435,0l-0,-10.347Z" style="fill:#004794;fill-rule:nonzero;"/><path d="M347.546,514.136l21.435,-0l-1.888,6.033l1.888,4.314l-21.435,0l0,-10.347Z" style="fill:#004794;fill-rule:nonzero;"/><rect x="1318.01" y="508.962" width="52.236" height="20.318" style="fill:#fff;fill-rule:nonzero;"/><rect x="419.867" y="508.962" width="52.236" height="20.318" style="fill:#fff;fill-rule:nonzero;"/><rect x="1229.21" y="344.566" width="103.42" height="85.272" style="fill:#c3dafc;fill-rule:nonzero;"/><rect x="457.49" y="344.566" width="103.42" height="85.272" style="fill:#c3dafc;fill-rule:nonzero;"/><rect x="1280.92" y="344.566" width="103.412" height="85.272" style="fill:#d4e4f8;fill-rule:nonzero;"/><rect x="405.784" y="344.566" width="103.412" height="85.272" style="fill:#d4e4f8;fill-rule:nonzero;"/><path d="M1229.27,408.212l16.389,-0l-1.446,-4.611l1.446,-3.295l-16.389,-0l-0,7.906Z" style="fill:#9dc3f3;fill-rule:nonzero;"/><path d="M560.846,408.212l-16.389,-0l1.446,-4.611l-1.446,-3.295l16.389,-0l0,7.906Z" style="fill:#9dc3f3;fill-rule:nonzero;"/><path d="M1280.92,370.955l16.381,-0l-1.438,-4.611l1.438,-3.295l-16.381,0l-0,7.906Z" style="fill:#e3f0ff;fill-rule:nonzero;"/><path d="M509.196,370.955l-16.381,-0l1.438,-4.611l-1.438,-3.295l16.381,0l0,7.906Z" style="fill:#e3f0ff;fill-rule:nonzero;"/><path d="M1280.92,363.049l-16.39,0l1.447,4.611l-1.447,3.295l16.39,-0l-0,-7.906Z" style="fill:#9dc3f3;fill-rule:nonzero;"/><path d="M509.196,363.049l16.39,0l-1.447,4.611l1.447,3.295l-16.39,-0l0,-7.906Z" style="fill:#9dc3f3;fill-rule:nonzero;"/><path d="M1384.33,409.127l-16.389,-0l1.446,4.611l-1.446,3.295l16.389,0l-0,-7.906Z" style="fill:#e3f0ff;fill-rule:nonzero;"/><path d="M405.784,409.127l16.389,-0l-1.446,4.611l1.446,3.295l-16.389,0l0,-7.906Z" style="fill:#e3f0ff;fill-rule:nonzero;"/><rect x="1347.8" y="350.348" width="29.757" height="11.577" style="fill:#fff;fill-rule:nonzero;"/><rect x="412.557" y="350.348" width="29.757" height="11.577" style="fill:#fff;fill-rule:nonzero;"/><rect x="1442.87" y="365.134" width="78.379" height="64.631" style="fill:#f5821f;fill-rule:nonzero;"/><rect x="268.87" y="365.134" width="78.379" height="64.631" style="fill:#f5821f;fill-rule:nonzero;"/><rect x="1403.68" y="365.134" width="78.379" height="64.631" style="fill:#ff9e55;fill-rule:nonzero;"/><rect x="308.06" y="365.134" width="78.379" height="64.631" style="fill:#ff9e55;fill-rule:nonzero;"/><path d="M1521.21,413.374l-12.42,0l1.093,-3.494l-1.093,-2.498l12.42,0l0,5.992Z" style="fill:#dd732c;fill-rule:nonzero;"/><path d="M268.911,413.374l12.42,0l-1.093,-3.494l1.093,-2.498l-12.42,0l-0,5.992Z" style="fill:#dd732c;fill-rule:nonzero;"/><path d="M1482.06,385.135l-12.42,0l1.093,-3.494l-1.093,-2.497l12.42,-0l0,5.991Z" style="fill:#ffb27d;fill-rule:nonzero;"/><path d="M308.06,385.135l12.42,0l-1.093,-3.494l1.093,-2.497l-12.42,-0l-0,5.991Z" style="fill:#ffb27d;fill-rule:nonzero;"/><path d="M1482.06,379.144l12.421,-0l-1.093,3.494l1.093,2.497l-12.421,0l0,-5.991Z" style="fill:#dd732c;fill-rule:nonzero;"/><path d="M308.06,379.144l-12.421,-0l1.093,3.494l-1.093,2.497l12.421,0l-0,-5.991Z" style="fill:#dd732c;fill-rule:nonzero;"/><path d="M1403.68,414.069l12.42,-0l-1.101,3.494l1.101,2.497l-12.42,0l-0,-5.991Z" style="fill:#ffb27d;fill-rule:nonzero;"/><path d="M386.438,414.069l-12.42,-0l1.101,3.494l-1.101,2.497l12.42,0l0,-5.991Z" style="fill:#ffb27d;fill-rule:nonzero;"/><rect x="1408.81" y="369.517" width="22.551" height="8.775" style="fill:#fff;fill-rule:nonzero;"/><rect x="358.754" y="369.517" width="22.551" height="8.775" style="fill:#fff;fill-rule:nonzero;"/><g><path d="M635.971,528.775l15.699,20.508l29.895,-13.226l-19.121,-30.685l-26.473,23.403Z" style="fill:#e1e1e1;fill-rule:nonzero;"/><path d="M682.757,535.65l-3.415,-5.216l-29.296,18.536l6.91,11.573l1.922,-0.959c8.515,-4.339 42.998,-22.663 47.543,-27.54c5.066,-5.443 -23.664,3.606 -23.664,3.606" style="fill:#004794;fill-rule:nonzero;"/><path d="M437.571,513.596l116.965,-110.297c7.234,-7.4 17.147,-11.572 27.499,-11.572c13.794,-0 26.532,7.387 33.379,19.362l59.839,102.827l-37.965,21.908l-57.635,-73.293l-57.753,52.184l-84.329,-1.119Z" style="fill:#004794;fill-rule:nonzero;"/><path d="M403.137,519.127c-0.495,1.489 -3.967,39.171 46.607,39.171l135.133,0c17.103,0 30.97,-13.867 30.97,-30.972c-0,-17.101 -13.867,-30.968 -30.97,-30.968l-125.819,-0c-4.503,-0 -8.95,0.979 -13.035,2.876l-42.886,19.893Z" style="fill:#004794;fill-rule:nonzero;"/><path d="M476.936,270.025c0.156,1.528 -0.67,3.115 -2.018,3.86c-1.343,0.745 -3.128,0.605 -4.341,-0.339c-2.304,-1.795 -1.94,-5.387 -0.886,-8.112c1.051,-2.724 2.6,-5.549 1.924,-8.392c-0.516,-2.176 -2.229,-3.823 -3.454,-5.693c-2.13,-3.259 -2.773,-7.529 -1.39,-11.169c1.383,-3.642 4.867,-6.475 8.748,-6.787c3.965,-0.318 8.37,1.739 11.698,-0.435c2.413,-1.576 3.165,-4.784 5.191,-6.828c3.149,-3.18 8.412,-2.756 12.646,-1.313c4.233,1.444 8.389,3.703 12.856,3.474c3.732,-0.191 7.137,-2.107 10.768,-2.983c7.873,-1.897 16.762,1.695 21.105,8.53c4.345,6.833 3.827,16.407 -1.229,22.732c-1.816,2.271 -5.905,9.064 -14.046,7.373" style="fill:#1a2e35;fill-rule:nonzero;"/><path d="M481.569,239.236l-1.096,5.859l-16.975,87.613c-1.969,10.173 5.206,19.967 16.116,21.993c11.013,2.047 21.685,-4.592 23.844,-14.834c2.267,-10.751 4.85,-22.026 4.85,-22.026c0,-0 14.337,0.578 20.964,-16.906c3.295,-8.694 5.903,-23.53 7.646,-35.739c1.568,-10.987 -6.317,-21.07 -17.361,-22.172l-37.988,-3.788Z" style="fill:#ffb27d;fill-rule:nonzero;"/><path d="M508.309,317.842c0,-0 -12.325,-1.741 -22.871,-11.488c0,0 3.295,13.641 21.742,15.706l1.129,-4.218Z" style="fill:#ed9b62;fill-rule:nonzero;"/><path d="M539.185,257.3c0,0 -10.237,2.919 -21.45,-5.36c-7.355,-5.432 -16.406,-9.041 -18.761,-7.783c-2.354,1.259 -4.245,9.487 -12.652,10.514c-0,0 -2.224,15.943 -8.445,14.273c-6.217,-1.67 1.288,-33.038 1.288,-33.038l17.513,2.671l17.421,-0.237l15.502,5.021l11.708,5.518l-2.124,8.421Z" style="fill:#1a2e35;fill-rule:nonzero;"/><path d="M479.592,262.534c-0.23,-0.177 -9.709,-5.749 -12.007,4.773c-2.298,10.523 8.74,10.662 8.825,10.364c0.083,-0.299 3.182,-15.137 3.182,-15.137" style="fill:#ffb27d;fill-rule:nonzero;"/><path d="M494.199,495.468l-0,-6.941l98.796,2.022l56.889,-90.889l5.218,3.769l-58.28,92.929l-102.623,-0.89Z" style="fill:#e1e1e1;fill-rule:nonzero;"/><path d="M562.546,465.179l4.975,7.373l0,15.183c0,0 -2.575,0.595 -3.602,-1.462c-1.03,-2.059 -2.401,-9.091 -2.401,-9.091l-2.406,6.217c-0.978,2.523 -3.68,3.923 -6.304,3.263l-18.318,-4.594l7.483,-21.407l20.573,4.518Z" style="fill:#ffb27d;fill-rule:nonzero;"/><path d="M461.385,318.551c-0,-0 -27.343,6.836 -35.548,19.141c-8.203,12.305 -17.544,32.726 -27.609,72.332c-8.784,34.564 -15.56,89.763 -6.049,102.715c6.548,8.919 10.725,11.188 10.725,11.188l21.1,-7.558c20.326,-7.28 39.003,-18.52 54.952,-33.071l32.383,-29.546l-17.141,-13.519c-0,-0 13.039,-70.429 9.574,-95.038c-3.031,-21.517 -42.387,-26.644 -42.387,-26.644" style="fill:#f5821f;fill-rule:nonzero;"/><path d="M468.458,339.773c-10.525,2.613 -20.65,6.885 -35.033,8.089c-3.369,0.281 -6.828,-0.339 -9.707,-2.115c-9.079,-5.605 -5.934,-15.982 -0.973,-22.969c5.26,-7.406 13.54,-13.779 22.577,-12.87c-1.722,-4.495 0.947,-9.863 5.165,-12.178c4.222,-2.313 9.486,-2.009 13.992,-0.316c4.503,1.693 8.415,4.632 12.255,7.531c5.154,3.889 10.31,7.781 15.462,11.67c3.467,2.619 7.049,5.367 9.047,9.223c2.001,3.856 9.404,18.988 6.115,21.827c0,-0 -4.205,1.225 -6.239,-0c-0.115,-0.069 -0.24,-0.158 -0.379,-0.267c-9.214,-7.177 -20.947,-10.441 -32.282,-7.625" style="fill:#f5821f;fill-rule:nonzero;"/><path d="M452.911,352.597l-18.075,84.495c-3.159,14.759 5.048,29.591 19.235,34.754l78.553,15.065l9.795,-29.279l-63.748,-19.889l18.696,-81.629l-44.456,-3.517Z" style="fill:#f5821f;fill-rule:nonzero;"/><g opacity="0.2"><path d="M451.069,351.471c-9.454,29.292 -15.163,59.69 -18.921,90.24c-0.868,7.051 -1.629,14.229 -0.416,21.23c1.214,7.001 4.669,13.91 10.63,17.777c5.568,3.608 12.681,4.16 19.198,2.924c6.518,-1.233 17.059,-2.675 23.058,-5.51l-35.149,-7.246c0,-0 -22.663,-1.412 -12.929,-44.806c9.73,-43.396 14.529,-74.609 14.529,-74.609" style="fill-rule:nonzero;"/></g><g opacity="0.2"><path d="M421.101,344.259c-0.14,3.468 0.185,7.744 3.336,9.194c3.238,1.493 6.751,-1.213 9.37,-3.63c10.653,-9.827 22.734,-18.103 35.741,-24.495c-17.656,1.138 -34.89,8.103 -48.383,19.555" style="fill-rule:nonzero;"/></g></g></svg>